<?xml version="1.0" encoding="UTF-8" standalone="no"?>
<!-- Created with Inkscape (http://www.inkscape.org/) -->

<svg
   xmlns:dc="http://purl.org/dc/elements/1.1/"
   xmlns:cc="http://creativecommons.org/ns#"
   xmlns:rdf="http://www.w3.org/1999/02/22-rdf-syntax-ns#"
   xmlns:svg="http://www.w3.org/2000/svg"
   xmlns="http://www.w3.org/2000/svg"
   xmlns:sodipodi="http://sodipodi.sourceforge.net/DTD/sodipodi-0.dtd"
   xmlns:inkscape="http://www.inkscape.org/namespaces/inkscape"
   width="373.83359"
   height="404.59689"
   id="svg2"
   version="1.1"
   inkscape:version="0.48.4 r9939"
   sodipodi:docname="brain_schematics_front.svg">
  <defs
     id="defs4" />
  <sodipodi:namedview
     id="base"
     pagecolor="#ffffff"
     bordercolor="#666666"
     borderopacity="1.0"
     inkscape:pageopacity="0.0"
     inkscape:pageshadow="2"
     inkscape:zoom="1.4"
     inkscape:cx="449.80965"
     inkscape:cy="235.95324"
     inkscape:document-units="px"
     inkscape:current-layer="layer1"
     showgrid="false"
     inkscape:window-width="1920"
     inkscape:window-height="1180"
     inkscape:window-x="-2"
     inkscape:window-y="-3"
     inkscape:window-maximized="1"
     fit-margin-top="0"
     fit-margin-left="0"
     fit-margin-right="0"
     fit-margin-bottom="0"
     showguides="true"
     inkscape:guide-bbox="true" />
  <metadata
     id="metadata7">
    <rdf:RDF>
      <cc:Work
         rdf:about="">
        <dc:format>image/svg+xml</dc:format>
        <dc:type
           rdf:resource="http://purl.org/dc/dcmitype/StillImage" />
        <dc:title />
      </cc:Work>
    </rdf:RDF>
  </metadata>
  <g
     inkscape:label="Layer 1"
     inkscape:groupmode="layer"
     id="layer1"
     transform="translate(572.8122,-120.40499)">
    <path
       style="color:#000000;fill:none;stroke:#a6a6a6;stroke-width:1.7;stroke-linecap:square;stroke-linejoin:round;stroke-miterlimit:4;stroke-opacity:1;stroke-dasharray:none;stroke-dashoffset:0;marker:none;visibility:visible;display:inline;overflow:visible;enable-background:accumulate"
       d="m -502.91859,346.93175 c -2.35578,-2.03072 -3.92654,-7.02307 -3.94345,-12.53362 -0.0156,-5.10077 -0.0778,-5.28034 -1.6842,-4.86824 -0.91734,0.23535 -4.20539,0.66393 -7.30664,0.9524 -6.51146,0.60568 -9.94554,-0.278 -12.5997,-3.24223 -2.87479,-3.2106 -8.37281,-5.66316 -14.6766,-6.54688 -4.97339,-0.69722 -6.18101,-0.63438 -8.14531,0.42372 -2.67304,1.43988 -2.65052,1.35814 -1.18656,4.30695 1.44902,2.91892 2.59904,3.50914 11.29026,5.79452 8.1256,2.13666 10.95141,3.50612 25.88861,12.5463 4.75254,3.04548 11.16084,4.05427 14.63301,8.63996 1.71844,2.26947 2.57725,4.61608 2.30492,8.33233 -0.60869,8.30307 -0.76529,8.90137 -3.08007,11.76708 -2.93499,3.63335 -9.12005,5.24003 -20.27965,5.268 -10.53109,0.0264 -13.71422,0.69835 -13.71422,2.89511 0,1.06736 1.51191,2.26033 5.43118,4.28555 11.79734,6.0961 15.50375,13.34845 12.35227,24.17007 -0.60723,2.0849 -1.10394,4.25674 -1.10394,4.82632 0,1.69813 1.81891,1.18014 3.82047,-1.088 l 0,0 -5.2e-4,0 c 1.03067,-1.16796 2.6584,-3.48891 3.61705,-5.15764 3.26398,-5.68129 8.73149,-11.816 11.97492,-13.43618 1.7586,-0.87848 4.86535,-1.82253 6.90397,-2.09788 l 3.70651,-0.50066 0.0405,-4.75149 c 0.0747,-8.86488 6.22346,-16.73175 15.15691,-19.3908 1.01926,-0.30339 5.39984,-2.27438 9.73466,-4.37997 9.39756,-4.56482 12.26052,-5.19612 15.74753,-3.47248 2.77973,1.3741 8.3476,1.65458 10.08814,0.5082 1.79099,-1.17964 -0.7599,-14.5613 -4.76852,-25.0159 -3.86624,-10.0831 -4.40788,-12.16968 -5.88461,-22.66935 -1.56858,-11.1535 -0.0145,-25.69901 2.74558,-25.69901 1.4594,0 5.49553,3.81191 6.28677,5.9376 0.4444,1.19383 1.1851,4.17337 1.6459,6.6212 0.4609,2.44783 1.14296,4.25422 1.51575,4.0142 0.89005,-0.57302 4.0242,-6.17193 5.46035,-9.75474 l 1.13621,-2.83433 -3.74511,-2.80279 c -5.06732,-3.79227 -5.98227,-6.25995 -5.04117,-13.59718 0.85642,-6.67671 3.67735,-13.33422 6.44867,-15.21902 2.71507,-1.84654 11.91535,-1.49301 16.1031,0.61877 3.9447,1.98921 4.1285,1.96526 6.69651,-0.87277 1.19755,-1.3234 3.92871,-3.76682 6.06924,-5.42984 3.40741,-2.64728 3.89187,-3.36183 3.89187,-5.74037 0,-3.43745 -1.87121,-7.27633 -3.54025,-7.26333 -0.70314,0.005 -3.39299,0.70048 -5.9775,1.54442 -5.63418,1.83976 -10.31636,1.96686 -12.54541,0.34055 -0.89991,-0.65666 -2.51674,-2.75897 -3.59298,-4.67183 -1.79472,-3.1901 -1.91438,-3.92417 -1.44642,-8.87069 1.20845,-12.77506 4.76645,-20.00969 14.96968,-30.43782 8.57436,-8.76339 9.84695,-11.35299 10.4629,-21.29074 0.28219,-4.55226 0.083,-6.41037 -0.90187,-8.39338 -2.38473,-4.80388 -6.32123,-9.87757 -9.20702,-11.86689 -1.79608,-1.23816 -4.12746,-4.12377 -6.16721,-7.63328 -3.15315,-5.42547 -3.39807,-5.65166 -6.36326,-5.87911 -1.8271,-0.14016 -7.09389,0.85864 -12.92381,2.45088 -5.41198,1.4781 -13.44687,3.42043 -17.85517,4.31631 -16.32945,3.31851 -28.34484,9.75212 -32.07875,17.17644 -1.47237,2.92768 -1.40388,16.85203 0.10907,22.15887 1.59027,5.57848 2.93925,7.67725 10.20096,15.87096 8.24806,9.30682 9.39165,11.3312 9.39517,16.63125 0,5.72852 -2.8257,11.42766 -8.10857,16.33251 -7.86283,7.30014 -14.29977,8.78485 -19.86846,4.58277 -1.6487,-1.24413 -3.53351,-3.05892 -4.18838,-4.03287 -1.69717,-2.524 -1.54938,-9.69385 0.29194,-14.1686 2.22169,-5.39921 1.91325,-7.75325 -1.92497,-14.69068 -4.59303,-8.30159 -5.97386,-11.73875 -7.03037,-17.49982 -1.14266,-6.23091 -1.83375,-7.584 -3.85835,-7.55372 -2.15765,0.0323 -3.73235,1.34918 -5.23451,4.37729 -1.57201,3.16922 -1.53475,4.68552 0.29952,12.20066 0.82933,3.39771 1.9698,10.52135 2.53438,15.83028 0.78315,7.36538 1.55976,10.95501 3.27737,15.14897 2.54497,6.21413 3.45224,10.83945 2.7213,13.87316 -0.79322,3.29206 -16.19101,19.14455 -24.14329,24.85618 -7.87029,5.65278 -11.86096,9.26135 -11.86096,10.72547 0,2.1258 3.13664,2.80102 10.88737,2.3438 6.51291,-0.3842 8.58546,-0.86209 14.12551,-3.25718 14.13288,-6.10986 13.44532,-5.96667 26.13748,-5.44373 13.22769,0.54503 17.08188,1.28936 20.91086,4.0384 4.40196,3.16038 5.34276,6.80082 4.71653,18.25155 -0.57413,10.49735 0.46433,19.85058 2.20394,19.85058 0.54569,0 1.19828,-0.34749 1.45027,-0.7722 0.92854,-1.56504 4.67387,-0.82136 6.22792,1.23665 2.14707,2.84341 2.62198,6.57939 1.63095,12.8307 -1.84786,11.65515 -6.52505,21.40201 -11.62434,24.22374 l -2.67044,1.47768 -2.09704,-2.59935 -2.09705,-2.59937 -5.64756,2.79242 c -6.7046,3.31508 -12.14398,3.76086 -15.22801,1.24799 -1.01925,-0.83054 -3.25318,-3.91462 -4.99404,-5.75984 -0.93021,-0.986 -2.23155,-2.25007 -2.90769,-2.83296 z"
       id="path4189-1"
       inkscape:connector-curvature="0"
       sodipodi:nodetypes="ccssssscscaccssscsccccsscccsccscscccccsssscsscsccssscccsssccscscssssscscsssssssssssscscccscac" />
    <path
       style="color:#000000;fill:none;stroke:#a6a6a6;stroke-width:1.7;stroke-linecap:square;stroke-linejoin:round;stroke-miterlimit:4;stroke-opacity:1;stroke-dasharray:none;stroke-dashoffset:0;marker:none;visibility:visible;display:inline;overflow:visible;enable-background:accumulate"
       d="m -265.91971,346.93175 c 2.35578,-2.03072 3.92654,-7.02307 3.94345,-12.53362 0.0156,-5.10077 0.0778,-5.28034 1.6842,-4.86824 0.91734,0.23535 4.20539,0.66393 7.30664,0.9524 6.51146,0.60568 9.94554,-0.278 12.5997,-3.24223 2.87479,-3.2106 8.37281,-5.66316 14.6766,-6.54688 4.97339,-0.69722 6.18101,-0.63438 8.14531,0.42372 2.67304,1.43988 2.65052,1.35814 1.18656,4.30695 -1.44902,2.91892 -2.59904,3.50914 -11.29026,5.79452 -8.1256,2.13666 -10.95141,3.50612 -25.88861,12.5463 -4.75254,3.04548 -11.16084,4.05427 -14.63301,8.63996 -1.71844,2.26947 -2.57725,4.61608 -2.30492,8.33233 0.60869,8.30307 0.76529,8.90137 3.08007,11.76708 2.93499,3.63335 9.12005,5.24003 20.27965,5.268 10.53109,0.0264 13.71422,0.69835 13.71422,2.89511 0,1.06736 -1.51191,2.26033 -5.43118,4.28555 -11.79734,6.0961 -15.50375,13.34845 -12.35227,24.17007 0.60723,2.0849 1.10394,4.25674 1.10394,4.82632 0,1.69813 -1.81891,1.18014 -3.82047,-1.088 l 0,0 5.2e-4,0 c -1.03067,-1.16796 -2.6584,-3.48891 -3.61705,-5.15764 -3.26398,-5.68129 -8.73149,-11.816 -11.97492,-13.43618 -1.7586,-0.87848 -4.86535,-1.82253 -6.90397,-2.09788 l -3.70651,-0.50066 -0.0405,-4.75149 c -0.0747,-8.86488 -6.22346,-16.73175 -15.15691,-19.3908 -1.01926,-0.30339 -5.39984,-2.27438 -9.73466,-4.37997 -9.39756,-4.56482 -12.26052,-5.19612 -15.74753,-3.47248 -2.77973,1.3741 -8.3476,1.65458 -10.08814,0.5082 -1.79099,-1.17964 0.7599,-14.5613 4.76852,-25.0159 3.86624,-10.0831 4.40788,-12.16968 5.88461,-22.66935 1.56858,-11.1535 0.0145,-25.69901 -2.74558,-25.69901 -1.4594,0 -5.49553,3.81191 -6.28677,5.9376 -0.4444,1.19383 -1.1851,4.17337 -1.6459,6.6212 -0.4609,2.44783 -1.14296,4.25422 -1.51575,4.0142 -0.89005,-0.57302 -4.0242,-6.17193 -5.46035,-9.75474 l -1.13621,-2.83433 3.74511,-2.80279 c 5.06732,-3.79227 5.98227,-6.25995 5.04117,-13.59718 -0.85642,-6.67671 -3.67735,-13.33422 -6.44867,-15.21902 -2.71507,-1.84654 -11.91535,-1.49301 -16.1031,0.61877 -3.9447,1.98921 -4.1285,1.96526 -6.69651,-0.87277 -1.19755,-1.3234 -3.92871,-3.76682 -6.06924,-5.42984 -3.40741,-2.64728 -3.89187,-3.36183 -3.89187,-5.74037 0,-3.43745 1.87121,-7.27633 3.54025,-7.26333 0.70314,0.005 3.39299,0.70048 5.9775,1.54442 5.63418,1.83976 10.31636,1.96686 12.54541,0.34055 0.89991,-0.65666 2.51674,-2.75897 3.59298,-4.67183 1.79472,-3.1901 1.91438,-3.92417 1.44642,-8.87069 -1.20845,-12.77506 -4.76645,-20.00969 -14.96968,-30.43782 -8.57436,-8.76339 -9.84695,-11.35299 -10.4629,-21.29074 -0.28219,-4.55226 -0.083,-6.41037 0.90187,-8.39338 2.38473,-4.80388 6.32123,-9.87757 9.20702,-11.86689 1.79608,-1.23816 4.12746,-4.12377 6.16721,-7.63328 3.15315,-5.42547 3.39807,-5.65166 6.36326,-5.87911 1.8271,-0.14016 7.09389,0.85864 12.92381,2.45088 5.41198,1.4781 13.44687,3.42043 17.85517,4.31631 16.32945,3.31851 28.34484,9.75212 32.07875,17.17644 1.47237,2.92768 1.40388,16.85203 -0.10907,22.15887 -1.59027,5.57848 -2.93925,7.67725 -10.20096,15.87096 -8.24806,9.30682 -9.39165,11.3312 -9.39517,16.63125 0,5.72852 2.8257,11.42766 8.10857,16.33251 7.86283,7.30014 14.29977,8.78485 19.86846,4.58277 1.6487,-1.24413 3.53351,-3.05892 4.18838,-4.03287 1.69717,-2.524 1.54938,-9.69385 -0.29194,-14.1686 -2.22169,-5.39921 -1.91325,-7.75325 1.92497,-14.69068 4.59303,-8.30159 5.97386,-11.73875 7.03037,-17.49982 1.14266,-6.23091 1.83375,-7.584 3.85835,-7.55372 2.15765,0.0323 3.73235,1.34918 5.23451,4.37729 1.57201,3.16922 1.53475,4.68552 -0.29952,12.20066 -0.82933,3.39771 -1.9698,10.52135 -2.53438,15.83028 -0.78315,7.36538 -1.55976,10.95501 -3.27737,15.14897 -2.54497,6.21413 -3.45224,10.83945 -2.7213,13.87316 0.79322,3.29206 16.19101,19.14455 24.14329,24.85618 7.87029,5.65278 11.86096,9.26135 11.86096,10.72547 0,2.1258 -3.13664,2.80102 -10.88737,2.3438 -6.51291,-0.3842 -8.58546,-0.86209 -14.12551,-3.25718 -14.13288,-6.10986 -13.44532,-5.96667 -26.13748,-5.44373 -13.22769,0.54503 -17.08188,1.28936 -20.91086,4.0384 -4.40196,3.16038 -5.34276,6.80082 -4.71653,18.25155 0.57413,10.49735 -0.46433,19.85058 -2.20394,19.85058 -0.54569,0 -1.19828,-0.34749 -1.45027,-0.7722 -0.92854,-1.56504 -4.67387,-0.82136 -6.22792,1.23665 -2.14707,2.84341 -2.62198,6.57939 -1.63095,12.8307 1.84786,11.65515 6.52505,21.40201 11.62434,24.22374 l 2.67044,1.47768 2.09704,-2.59935 2.09705,-2.59937 5.64756,2.79242 c 6.7046,3.31508 12.14398,3.76086 15.22801,1.24799 1.01925,-0.83054 3.25318,-3.91462 4.99404,-5.75984 0.93021,-0.986 2.23155,-2.25007 2.90769,-2.83296 z"
       id="path4189"
       inkscape:connector-curvature="0"
       sodipodi:nodetypes="ccssssscscaccssscsccccsscccsccscscccccsssscsscsccssscccsssccscscssssscscsssssssssssscscccscac" />
    <path
       style="fill:none;stroke:#a6a6a6;stroke-width:1.7;stroke-linecap:butt;stroke-linejoin:miter;stroke-miterlimit:4;stroke-opacity:1;stroke-dasharray:none"
       d="m -534.67598,427.57567 c 42.98305,14.19689 73.63862,9.83467 96.97406,-13.92389 14.169,-14.42593 -1.40886,-23.07716 7.07646,-26.20965 6.7869,-2.50551 17.82226,7.37147 12.58038,18.29215 -5.24177,10.92069 -5.76598,15.28897 -2.09673,24.57155 8.26644,16.98131 20.55851,22.43281 34.07191,22.93344 24.41167,0.90438 28.7028,-11.61732 36.43091,-24.29853 9.00173,-14.77103 -11.59476,-35.05822 9.17318,-41.77163 3.44021,-1.11209 8.2379,5.28969 6.81441,8.73655 -6.17375,14.94941 13.15389,25.99961 21.75367,29.48586 24.4452,9.90979 42.76594,19.08453 73.38581,1.91112"
       id="path4114"
       inkscape:connector-curvature="0"
       sodipodi:nodetypes="cssscsssssc" />
    <path
       style="color:#000000;fill:none;stroke:#a6a6a6;stroke-width:1.7;stroke-linecap:square;stroke-linejoin:round;stroke-miterlimit:4;stroke-opacity:1;stroke-dasharray:none;stroke-dashoffset:0;marker:none;visibility:visible;display:inline;overflow:visible;enable-background:accumulate"
       d="m -416.82926,282.29674 c -2.6008,-0.45159 -5.13104,-1.73709 -6.04194,-3.06975 -0.86202,-1.26106 -2.20892,-6.40764 -2.20809,-8.4372 7.2e-4,-1.71319 1.0754,-4.04363 1.94251,-4.21198 0.35514,-0.069 2.02304,0.73646 3.70651,1.78983 1.68336,1.05339 3.97811,2.31509 5.09939,2.8038 2.41607,1.0531 3.33413,1.61608 5.55976,3.40918 3.879,3.12519 5.86064,5.61173 5.42184,6.80309 -0.10544,0.28615 -0.82642,0.70387 -1.6021,0.92826 -1.65638,0.47914 -9.08559,0.4696 -11.87788,-0.0152 l 0,0 z"
       id="path4097"
       inkscape:connector-curvature="0" />
    <path
       style="color:#000000;fill:none;stroke:#a6a6a6;stroke-width:1.7;stroke-linecap:square;stroke-linejoin:round;stroke-miterlimit:4;stroke-opacity:1;stroke-dasharray:none;stroke-dashoffset:0;marker:none;visibility:visible;display:inline;overflow:visible;enable-background:accumulate"
       d="m -358.98571,281.82616 c -1.60147,-0.61537 -3.08298,-2.02453 -3.08298,-2.93236 0,-0.84872 1.54222,-2.25115 2.85207,-2.59361 0.483,-0.1263 1.38737,-1.00045 2.00965,-1.94257 0.78699,-1.19158 1.74014,-2.0132 3.13145,-2.69942 1.53693,-0.758 2.25853,-1.42398 3.11589,-2.87535 1.29407,-2.19086 1.92216,-2.32893 4.45842,-0.98 1.94884,1.03649 3.63095,3.32581 3.9504,5.37639 0.20736,1.33148 0.0809,1.61025 -1.58456,3.49894 -0.99539,1.1287 -2.22688,2.61926 -2.73645,3.31235 -0.69047,0.93893 -1.44332,1.39875 -2.95336,1.80389 -2.41784,0.64867 -7.50913,0.66632 -9.16053,0.0318 l 0,0 z"
       id="path4099"
       inkscape:connector-curvature="0" />
    <path
       style="color:#000000;fill:none;stroke:#000000;stroke-width:2;stroke-linecap:round;stroke-linejoin:round;stroke-miterlimit:4;stroke-opacity:1;stroke-dasharray:none;stroke-dashoffset:0;marker:none;visibility:visible;display:inline;overflow:visible;enable-background:accumulate"
       d="m -375.48069,520.974 c 4.0326,-1.41519 9.27271,-5.25222 11.87113,-5.6953 5.31588,-0.90643 22.78342,0.24094 41.25153,-0.46179 17.50801,-0.66618 24.47498,-1.59036 31.97227,-4.24116 23.37529,-8.26457 41.29761,-27.86721 49.88235,-54.55898 1.95102,-6.06624 2.25884,-8.22829 2.60838,-18.31959 l 0.39635,-11.44161 7.04251,-7.57133 c 14.69186,-15.79518 19.36833,-24.42951 25.18226,-46.49448 5.51068,-20.91379 5.95799,-30.7001 2.96208,-64.804 -1.06098,-12.07626 -2.27586,-26.38608 -2.69982,-31.79957 -2.00395,-25.58594 -6.8254,-45.83012 -14.89164,-62.52757 -6.1561,-12.74337 -13.72169,-21.64567 -24.68337,-29.04438 -5.9638,-4.02531 -25.78233,-20.13025 -39.76255,-32.31173 -6.78835,-5.91495 -14.18062,-10.10015 -25.28926,-14.31766 -4.59708,-1.74541 -13.12566,-5.52618 -18.95226,-8.40175 -18.91562,-9.33529 -22.88253,-9.3746 -44.28231,-0.43884 -7.13509,2.97933 -8.08118,3.18463 -14.53659,3.1542 -6.17469,-0.0292 -7.90444,-0.38156 -16.35395,-3.33211 -10.64182,-3.71619 -17.46795,-4.59745 -23.72784,-3.06328 -3.49843,0.8574 -22.07084,7.94929 -40.59697,15.50194 -21.61108,8.81034 -34.17538,16.98993 -45.93464,29.90418 -4.56313,5.01141 -10.7401,11.06805 -13.72646,13.4592 -12.15208,9.72978 -16.56597,14.5736 -22.40751,24.58989 -9.00714,15.44396 -15.34185,40.34993 -17.47896,68.72074 -5.25433,69.75517 -5.08371,79.34108 1.81984,102.21289 4.95523,16.41672 9.16021,23.83179 21.2988,37.55854 l 9.35615,10.58027 0.38452,9.81227 c 0.4555,11.62767 1.64953,16.16261 7.79277,29.5963 11.31299,24.73914 22.9503,36.14896 44.27276,43.40726 10.58484,3.60317 15.75615,4.08748 35.70089,3.34351 9.79412,-0.36534 22.72197,-0.66426 28.72863,-0.66426 7.7496,-1.1256 11.62839,0.47498 17.80743,4.62453 8.31531,5.58414 8.02223,5.46269 13.36405,5.53699 3.08008,0.0428 6.37406,-0.66905 11.62943,-2.51332 z"
       id="path3906"
       inkscape:connector-curvature="0"
       sodipodi:nodetypes="cssssscssssssssssssssssssssccsssccsc" />
    <path
       style="color:#000000;fill:none;stroke:#000000;stroke-width:2;stroke-linecap:square;stroke-linejoin:round;stroke-miterlimit:4;stroke-opacity:1;stroke-dasharray:none;stroke-dashoffset:0;marker:none;visibility:visible;display:inline;overflow:visible;enable-background:accumulate"
       d="m -237.77765,426.75783 c 0,0 1.02164,8.13613 -0.66162,11.58406 -4.15797,8.51695 -17.89668,19.17717 -29.5726,23.55331 -8.28916,3.10679 -21.10877,1.25125 -26.40908,1.04564 -12.49965,-0.4849 -15.30407,-1.20138 -21.3126,-5.44515 -4.30015,-3.03712 -5.98746,-5.28986 -9.95436,-13.29025 -1.46646,-2.95759 -3.25288,-6.12298 -3.96961,-7.03421 -1.616,-2.05428 -2.81646,-4.84254 -4.08449,-9.48687 -1.31638,-4.82167 -3.2206,-8.53735 -5.70309,-11.12853 -3.41031,-3.55962 -6.00842,-3.84305 -16.07487,-1.75363 -8.27795,1.71819 -14.6382,2.21826 -28.22861,2.21947 -13.89895,0.001 -20.45058,-0.50529 -28.58334,-2.20989 -6.77839,-1.42072 -10.86225,-1.67738 -12.84918,-0.80754 -2.53179,1.10836 -5.81487,6.08158 -7.45184,11.28781 -0.33968,1.08037 -0.92523,3.86033 -1.30124,6.17768 -0.73883,4.55343 -1.23948,5.93848 -3.15314,8.72274 -1.48358,2.15851 -3.23409,6.41563 -4.23227,10.29261 -1.67216,5.96429 -8.20925,9.0652 -13.22395,11.6613 -12.89423,5.23481 -38.64968,2.1976 -48.6988,-2.26949 -7.25278,-2.35377 -14.40095,-9.80696 -20.41591,-16.12138 -4.51353,-4.73812 -11.49399,-16.05113 -11.49399,-16.05113"
       id="path3932"
       inkscape:connector-curvature="0"
       sodipodi:nodetypes="csasssccsscsscsscccac" />
    <path
       style="fill:none;stroke:#000000;stroke-width:2;stroke-linecap:butt;stroke-linejoin:miter;stroke-miterlimit:4;stroke-opacity:1;stroke-dasharray:none"
       d="m -344.03937,413.66516 c 54.58725,-1.33908 72.2582,-12.13508 97.66463,-36.59768 21.14385,-20.35837 31.71884,-62.72366 35.53141,-82.01354"
       id="path3934"
       inkscape:connector-curvature="0"
       sodipodi:nodetypes="cac" />
    <path
       style="fill:none;stroke:#000000;stroke-width:2;stroke-linecap:butt;stroke-linejoin:miter;stroke-miterlimit:4;stroke-opacity:1;stroke-dasharray:none"
       d="m -424.91469,413.78995 c -54.58725,-1.33907 -73.66457,-9.56731 -98.99181,-34.40584 -22.46647,-22.033 -30.72314,-70.17606 -34.53572,-89.46595"
       id="path3934-3"
       inkscape:connector-curvature="0"
       sodipodi:nodetypes="cac" />
    <path
       style="fill:none;stroke:#000000;stroke-width:2;stroke-linecap:butt;stroke-linejoin:miter;stroke-miterlimit:4;stroke-opacity:1;stroke-dasharray:none"
       d="m -366.71047,126.26617 c -7.07645,7.9175 -9.66193,23.37797 -9.92398,26.65418 -0.26216,3.27621 -1.15428,46.04338 -0.36801,53.68787 0.78626,7.64447 1.94053,51.69677 2.46474,62.07143 0.52411,10.37465 1.31037,29.75888 0.26205,38.76843 -1.04841,9.00957 -5.07696,58.36284 1.63884,86.25688 1.94085,8.06146 2.51446,22.27951 10.87575,22.21093"
       id="path3961"
       inkscape:connector-curvature="0"
       sodipodi:nodetypes="ccsccac" />
    <path
       style="fill:none;stroke:#000000;stroke-width:2;stroke-linecap:butt;stroke-linejoin:miter;stroke-miterlimit:4;stroke-opacity:1;stroke-dasharray:none"
       d="m -401.42389,128.94854 c 7.07646,7.9175 9.04491,20.6956 9.30696,23.97181 0.26216,3.27621 1.15428,46.04338 0.36802,53.68787 -0.78626,7.64447 -1.94054,51.69677 -2.46475,62.07143 -0.5241,10.37465 -1.31036,29.75888 -0.26205,38.76843 1.04842,9.00957 5.21926,57.86657 -2.6581,85.00204 -2.47232,8.51632 -5.13539,22.75729 -13.49669,22.68871"
       id="path3961-6"
       inkscape:connector-curvature="0"
       sodipodi:nodetypes="ccsccac" />
    <path
       style="fill:none;stroke:#000000;stroke-width:0.8;stroke-linecap:butt;stroke-linejoin:miter;stroke-miterlimit:4;stroke-opacity:1;stroke-dasharray:none"
       d="m -265.50748,436.52897 c 29.91239,-34.15221 41.94044,-71.73322 56.49883,-101.12474"
       id="path3934-1"
       inkscape:connector-curvature="0"
       sodipodi:nodetypes="cc" />
    <path
       style="fill:none;stroke:#000000;stroke-width:0.8;stroke-linecap:butt;stroke-linejoin:miter;stroke-miterlimit:4;stroke-opacity:1;stroke-dasharray:none"
       d="m -503.75285,436.52896 c -29.91239,-34.15221 -40.36792,-69.00304 -58.07135,-97.84852"
       id="path3934-1-4"
       inkscape:connector-curvature="0"
       sodipodi:nodetypes="cc" />
    <path
       style="fill:none;stroke:#000000;stroke-width:0.8;stroke-linecap:butt;stroke-linejoin:miter;stroke-miterlimit:4;stroke-opacity:1;stroke-dasharray:none"
       d="m -408.60986,381.70878 c -41.74678,-20.10837 -69.18943,-40.82142 -75.48243,-84.63534 -2.62094,-18.01914 12.05608,-48.05103 2.09663,-55.14948 -11.12244,-7.92731 -24.63667,3.27621 -26.2092,-8.73655 -1.57252,-12.01276 25.78068,-27.57222 31.97529,-33.3081 9.43524,-8.73655 19.28301,-17.09321 12.05618,-27.84775 -7.33861,-10.92069 -1.47165,-19.31563 9.75323,-27.24116"
       id="path4042"
       inkscape:connector-curvature="0"
       sodipodi:nodetypes="ccssssc" />
    <path
       style="fill:none;stroke:#000000;stroke-width:0.8;stroke-linecap:butt;stroke-linejoin:miter;stroke-miterlimit:4;stroke-opacity:1;stroke-dasharray:none"
       d="m -472.13149,196.18388 c 20.44321,6.55241 38.88496,22.2606 36.26402,37.00353"
       id="path4044"
       inkscape:connector-curvature="0"
       sodipodi:nodetypes="cc" />
    <path
       style="fill:none;stroke:#000000;stroke-width:0.8;stroke-linecap:butt;stroke-linejoin:miter;stroke-miterlimit:4;stroke-opacity:1;stroke-dasharray:none"
       d="m -347.24793,366.96584 c 41.74678,-20.10836 47.58479,-39.55195 54.51501,-68.2543 6.02493,-24.95282 -23.28105,-60.81327 -14.80415,-75.63381 6.89795,-12.06016 22.14287,-6.81739 23.71539,-18.83015 -2.48965,-9.98042 -35.24414,-14.82131 -25.16078,-31.12396 7.33862,-10.92069 -2.19771,-26.41407 -13.42258,-34.3396"
       id="path4042-8"
       inkscape:connector-curvature="0"
       sodipodi:nodetypes="casccc" />
    <path
       style="fill:none;stroke:#000000;stroke-width:0.8;stroke-linecap:butt;stroke-linejoin:miter;stroke-opacity:1;stroke-miterlimit:4;stroke-dasharray:none"
       d="m -310.45971,181.98698 c -20.4432,6.55242 -35.73981,14.07009 -33.11887,28.81302"
       id="path4044-1"
       inkscape:connector-curvature="0"
       sodipodi:nodetypes="cc" />
  </g>
</svg>
