<?xml version="1.0" encoding="UTF-8" standalone="no"?>
<svg
   width="491.1225"
   height="412.07565"
   version="1.1"
   id="svg434"
   sodipodi:docname="brain_schematics_side.svg"
   inkscape:version="1.1.2 (b8e25be8, 2022-02-05)"
   xmlns:inkscape="http://www.inkscape.org/namespaces/inkscape"
   xmlns:sodipodi="http://sodipodi.sourceforge.net/DTD/sodipodi-0.dtd"
   xmlns="http://www.w3.org/2000/svg"
   xmlns:svg="http://www.w3.org/2000/svg">
  <defs
     id="defs438" />
  <sodipodi:namedview
     id="namedview436"
     pagecolor="#ffffff"
     bordercolor="#666666"
     borderopacity="1.0"
     inkscape:pageshadow="2"
     inkscape:pageopacity="0.0"
     inkscape:pagecheckerboard="0"
     showgrid="false"
     inkscape:zoom="1.4142136"
     inkscape:cx="272.23611"
     inkscape:cy="271.529"
     inkscape:window-width="1515"
     inkscape:window-height="1324"
     inkscape:window-x="1521"
     inkscape:window-y="25"
     inkscape:window-maximized="0"
     inkscape:current-layer="svg434" />
  <g
     id="g432"
     transform="matrix(0.99278642,0,0,0.9879571,-301.36814,-376.53756)">
    <path
       d="m 588.11899,617.43045 c -3.43185,-3.43184 -4.05001,-5.56946 -4.08986,-14.14278 0.16652,-10.74922 -6.49268,-11.61975 -9.46351,-21.23793 -1.88672,-6.46018 -13.13096,-15.34729 -30.1211,-23.8068 -13.93274,-6.08416 -29.14242,-9.22278 -39.41665,0.0943 -4.77876,4.36149 -5.69231,5.63764 -6.78826,9.48262 -1.54676,5.42651 -6.52654,17.18537 -8.90628,17.93014 -8.41419,4.75295 -12.51799,-0.45488 -18.33333,-6.66667 -7.62288,-9.00197 -6.60989,-19.96738 -0.20944,-28.98113 7.61148,-10.35475 10.07229,-12.58189 18.52754,-16.76816 18.01091,-6.26016 36.10263,-1.81748 56.37349,-8.01199 7.78904,-2.41562 21.33239,-3.88736 29.59965,-3.21655 27.04209,2.6445 58.70305,15.34372 83.03158,32.39529 8.25125,5.78319 16.84326,22.43028 19.67718,31.24921 -3.33718,5.11838 -2.02899,9.92664 -3.33333,15.33333 -0.6322,2.95229 -11.18203,2.64915 -15.102,4.65987 -3.94605,2.02407 -21.96675,5.49903 -25.65169,4.94644 -1.81164,-0.27167 -6.10711,-2.13927 -9.54549,-4.15024 -10.96821,-6.41481 -15.98799,-5.10762 -25.76438,6.70927 -6.42511,7.76615 -6.76447,7.90152 -10.48412,4.18186 z m 35.04013,-24.15713 c 9.5686,-3.54895 20.80023,-9.0362 18.50755,-14.52332 -1.70212,-4.07377 -10.95142,-15.42397 -17.33334,-19.66667 -12.5719,-8.35778 -35.10153,-16.71098 -45,-18 -4.16929,-0.54294 -10.66666,5.33809 -10.66666,7 0,1.24662 6.71865,5.94021 15.33333,13 6.53565,5.356 6.28807,15.55471 12.33333,24.66667 5.54536,8.35844 11.29877,7.37633 14.67245,8.88882 3.5115,1.57424 4.53829,1.45888 12.15334,-1.3655 z"
       style="fill:none;stroke:#a6a6a6;stroke-width:1.7"
       fill="none"
       stroke="#a6a6a6"
       stroke-width="1.700000"
       id="path396" />
    <path
       d="m 476.8556,796.09296 c -2.15315,-0.58975 -4.08684,1.30444 -6.02467,0.58303 -1.93784,-0.72141 -5.2051,-0.26309 -8.55115,-0.58303 -3.34606,-0.31992 -9.46845,1.02614 -9.71721,0.77738 -0.51013,-0.51013 -4.19578,-28.81331 -2.56257,-33.45367 0.58665,-1.66682 1.13837,-8.63058 3.66667,-11.33334 3.28253,-3.50902 3.26503,-4.85916 3.66666,-7 0.30934,-1.64894 2.64383,-3.09329 3.66667,-6.33333 1.02284,-3.24003 1.33384,-7.56053 2,-12 0.66616,-4.43946 3.5348,-10.0773 4.33333,-11.66667 0.79855,-1.58937 1.45957,-5.63152 2,-8 0.54045,-2.36847 2.80506,-5.86755 4,-8.66666 1.19493,-2.7991 3.35268,-6.82613 3.66667,-8.33334 0.31398,-1.50721 0.66079,-5.0036 1.66667,-7 1.0059,-1.99639 0.94795,-8.08558 1.66666,-12.33333 1.59917,-9.45154 -3.11556,-8.76522 0,-15 1.38959,-2.78083 0.66667,-5.17455 0.66667,-7 0,-3.4257 -0.3717,-5.45898 3,-9.66667 2.57033,-3.20763 -2.19122,-3.35218 -5,-3.33333 -2.30361,0.0154 3.67613,-8.53839 2.33333,-6 -1.10267,2.08441 -2.92407,-4 -4.33333,-4 -1.03183,0 4.40334,-6.1201 5,-8 0.5446,-1.7159 6.28112,-6.33884 11.66667,-11 2.41865,-2.09332 13.68246,0.10892 17.33333,-1 5.74206,-1.7441 9,4.42843 9,6.66667 0,0.75167 5.81577,-0.11914 7,1 1.94706,1.84003 2.33011,4.34305 10.66667,5 8.72616,0.68765 10.16281,1.91529 17,5.33333 11.32848,5.66332 12.24734,11.66859 14.18016,14.62773 2.69134,4.12043 1.9251,5.67678 -0.0968,8.24727 l -1.75,1.125 -2.375,-0.25 c -1.0828,-0.99519 -2.5051,-2.53008 -3.5,-4.75 -2.88255,-6.4318 -5.0764,-4.79914 -10,-1.75 -3.32981,2.06212 -0.59026,5.13346 -1.45833,7.41667 -0.38525,1.01327 -1.30062,2.53014 -1,4 0.42336,2.07005 -4.1292,6.79826 -2.33334,7.33333 6.80803,2.02847 0.93125,7.12892 4.54167,10.375 5.78264,5.1991 3.57175,7.55229 2.95132,14.99189 -0.28579,3.42683 -1.54793,9.27874 -2.84011,13.16808 -1.27915,3.85015 -2.32574,7.48771 -2.32574,8.08348 0,0.59576 -1.56688,4.20195 -3.48197,8.01375 -6.79472,13.52425 -16.42371,20.50457 -30.15082,21.8572 -3.01915,0.29751 -6.02748,0.93639 -6.68519,1.41973 -0.69547,0.51112 -1.70031,3.66345 -2.40155,7.53404 -0.66315,3.66035 -1.59777,7.7122 -2.0769,9.00409 -2.08101,5.61098 -9.54696,19.77385 -11.55671,21.92303 -1.20807,1.2919 -2.44926,3.22973 -2.75819,4.30632 -0.30891,1.07657 -1.55602,3.54291 -2.77131,5.48075 -1.2153,1.93783 -2.44895,4.49226 -2.74144,5.6765 -0.29249,1.18423 -0.75785,2.12996 -1.03413,2.10163 -0.27629,-0.0284 -3.99351,2.99721 -6.14666,2.40747 z"
       style="fill:none;stroke:#a6a6a6;stroke-width:1.7"
       fill="none"
       stroke="#a6a6a6"
       stroke-width="1.700000"
       id="path398" />
    <path
       d="m 367.33333,480.41667 c 16.44228,28.96971 18.1081,37.62735 35.33334,60.33333 17.22523,22.706 29.33333,45 29.33333,45 0,0 -21.00736,19.00737 -36.66667,34.66667 -15.6593,15.65931 -32.45701,27.1859 -47.33333,32.66666 -14.87634,5.48075 -19.77483,3.79902 -19.77483,3.79902"
       style="fill:none;stroke:#a6a6a6;stroke-width:1.7"
       fill="none"
       stroke="#a6a6a6"
       stroke-width="1.700000"
       id="path400" />
    <path
       d="m 544.09868,660.82942 c -8.74549,4.08123 -14.38147,-7.38508 -24.09868,1.7491 -12.82671,5.24729 -18.4627,14.18712 -18.4627,14.18712 0,0 -7.19073,12.43803 -9.91155,27.79122 -1.55475,7.96811 2.13779,9.13418 4.66426,22.73827 11.07762,7.19073 14.77016,8.74548 14.77016,8.74548"
       style="fill:none;stroke:#a6a6a6;stroke-width:1.7"
       fill="none"
       stroke="#a6a6a6"
       stroke-width="1.700000"
       id="path402" />
    <path
       d="m 334,661.08333 c 14.47671,-5.03025 24.3841,-6.41359 38,-6.66666 13.6159,-0.25308 27.85994,-1.03113 49,3.66666 36,24.33334 61.33333,23 99,26.33334 26.48717,2.34399 13.74199,23.04446 25.91631,32.83431"
       style="fill:none;stroke:#000000;stroke-width:1.7"
       fill="none"
       stroke="#000000"
       stroke-width="1.700000"
       id="path404" />
    <path
       d="m 447.66667,783.75 c 34.33333,-8 54,-47 45.33333,-63 19.33333,-16 19,-26 17.33333,-33.66667"
       style="fill:none;stroke:#000000;stroke-width:1.7"
       fill="none"
       stroke="#000000"
       stroke-width="1.700000"
       id="path406" />
    <path
       d="m 666.74295,682.07974 c -1.37019,-12.13596 -5.15847,-25.38412 -9.28931,-36.23445 -4.13084,-10.85033 -8.60422,-19.30283 -11.34461,-21.84747 -15.79447,-14.66628 -29.28214,-24.14779 -42.38265,-31.71128 -13.10051,-7.5635 -25.81386,-13.20898 -40.05971,-20.20321 C 541.83333,553.91667 530.91667,552 521.125,552 c -9.79167,0 -30.79167,-5.25 -51.79167,-23.58333"
       style="fill:none;stroke:#000000;stroke-width:2"
       fill="none"
       stroke="#000000"
       stroke-width="2.000000"
       id="path408" />
    <path
       d="m 483,796.41667 c 5.03053,-3.22505 10.86324,-18.89468 20,-32 10.66667,-32.33334 14.80319,-21.65909 25.01007,-29.87587 4.30689,-3.46715 10.20074,-8.57223 13.09741,-11.34458 l 5.26668,-5.04068 4.38848,3.82986 c 18.27409,15.94795 24.01041,15.46567 33.23736,18.09793 11.23486,3.20509 27.46351,-0.64829 49.33333,-9.66666 21.95329,-9.0528 29.44938,-11.97107 32.6274,-37.1864 l 1.34378,-10.66195 6.30093,-0.4906 c 3.46552,-0.26985 11.40979,-0.50193 17.65394,-0.51573 16.05355,-0.0355 34.02173,-1.25918 40.80171,-2.77866 12.54585,-2.81166 27.80068,-10.69476 36.84675,-19.041 16.3412,-15.07702 25.87475,-40.50079 24.67824,-65.81119 -0.91913,-19.44291 -4.23708,-32.16395 -12.98098,-49.76933 -8.49126,-17.09666 -16.80405,-30.20824 -29.53245,-46.58091 -14.68881,-18.89436 -21.57962,-25.56368 -43.24957,-41.85952 -19.24022,-14.46869 -33.1774,-22.3819 -66.67347,-37.8557 -28.79523,-13.3022 -34.5186,-15.33209 -51.01162,-18.09214 -7.9013,-1.32225 -17.88933,-3.4617 -22.19564,-4.75431 -12.9819,-3.89675 -17.24278,-4.54233 -36.01639,-5.45703 -9.90451,-0.48257 -21.4808,-1.21535 -25.72507,-1.6284 -20.46194,-1.99131 -26.83214,-0.85153 -54.92035,9.82658 -43.07396,16.37515 -50.74485,22.25688 -84.13309,64.50995 -20.95151,26.51428 -28.26256,38.84106 -46.19236,77.88259 -14.22027,30.96417 -17.08289,42.62589 -16.26496,66.26014 0.46615,13.46909 1.67312,18.70541 6.58731,28.57822 3.60492,7.24245 5.23118,9.32145 15.64709,20.00306 5.48584,5.62578 9.39949,10.35917 10.35942,12.52926 1.24492,2.81434 1.70909,6.58636 2.4041,19.5367 0.96327,17.94913 5.18008,24.36437 9.31195,34.02303 18,26 31.89126,39.21318 59,48.33334 6.64788,2.23653 19,0.33333 28.33333,11.33333 21.06134,0.0552 11.8163,13.85179 17.66667,16 14.66667,0.66667 21,0.66667 29,-0.33333 z"
       style="fill:none;stroke:#000000;stroke-width:2"
       fill="none"
       stroke="#000000"
       stroke-width="2.000000"
       id="path410" />
    <path
       d="m 461.33333,403.08333 c 6.09004,20.48468 4,43 27,62.66667 31.66667,10.66667 56.96169,5.78544 78,8 48.66667,0.33333 89.8544,27.73563 112,47.66667 26.33334,12.66666 34.66667,36 34.66667,36"
       style="fill:none;stroke:#a6a6a6;stroke-width:1.7"
       fill="none"
       stroke="#a6a6a6"
       stroke-width="1.700000"
       id="path412" />
    <path
       d="m 525.0556,390.12634 c 0,0 -0.40923,18.9352 3.9444,23.95699 9.59068,11.06257 36.4521,26.91572 38.66667,34.66667 2.21456,7.75096 -1.86974,12.47509 3.66666,21.33333 27,31.33334 27,59.33334 10,81.33334"
       style="fill:none;stroke:#000000;stroke-width:0.8"
       fill="none"
       stroke="#000000"
       stroke-width="0.800000"
       id="path414" />
    <path
       d="m 496.66667,398.41667 c 0.33333,10 -4.33334,13.66666 -5.66667,22.33333 2.33333,7.33333 5.66667,11 15,18.33333 14.39416,4.90636 28.28666,14.29677 39.33333,28.66667 26,33.66667 17.75138,49.09841 -0.33333,70.33333"
       style="fill:none;stroke:#000000;stroke-width:0.8"
       fill="none"
       stroke="#000000"
       stroke-width="0.800000"
       id="path416" />
    <path
       d="m 618.66667,451.08333 c 10.16666,6.66667 6,20.33334 1.33333,37.33334 -3.11905,11.36227 20.97217,17.68389 28.33333,24.33333 21.33334,13.33333 24.33334,17.66667 41.09135,33.70398 15.86307,15.18086 32.88409,25.77189 33.24199,31.96269"
       style="fill:none;stroke:#000000;stroke-width:0.8"
       fill="none"
       stroke="#000000"
       stroke-width="0.800000"
       id="path418" />
    <path
       d="m 639.33333,619.08333 c 29,-3.66666 53,-1.33333 53,-1.33333"
       style="fill:none;stroke:#000000;stroke-width:0.8"
       fill="none"
       stroke="#000000"
       stroke-width="0.800000"
       id="path420" />
    <path
       d="m 623.33333,606.41667 c 8.30459,-27.682 8.02116,-66.80753 8.02116,-66.80753"
       style="fill:none;stroke:#000000;stroke-width:0.8"
       fill="none"
       stroke="#000000"
       stroke-width="0.800000"
       id="path422" />
    <path
       d="m 640,620.75 c 10,-21.66667 20.66667,-44.33333 20.66667,-44.33333"
       style="fill:none;stroke:#000000;stroke-width:0.8"
       fill="none"
       stroke="#000000"
       stroke-width="0.800000"
       id="path424" />
    <path
       d="m 703,523.08333 c 13,-13.66666 14.33333,-8.33333 31,-7 14.94828,-3.32184 24.67119,38.56637 26.33333,41.33334 1.33334,22.33333 9.33334,41.66666 22.16489,59.14843"
       style="fill:none;stroke:#000000;stroke-width:0.8"
       fill="none"
       stroke="#000000"
       stroke-width="0.800000"
       id="path426" />
    <path
       d="M 649.6246,705.70114 C 642.98092,687.70784 636.21896,675.21938 628.50186,664.23248 609.66667,637.41667 568.33333,622.08333 508,597.41667 c -21.8158,-15.12603 -10,-26 -47,-37 -12.8323,-3.81501 -6.66667,-0.33334 -15.33333,-10"
       style="fill:none;stroke:#000000;stroke-width:0.8"
       fill="none"
       stroke="#000000"
       stroke-width="0.800000"
       id="path428" />
    <path
       d="M 611.66667,721.08333 C 595,689.08333 555.12589,669.82203 527.82722,650.31951 495.23061,627.03206 477.03515,631.77568 444,608.41667"
       style="fill:none;stroke:#000000;stroke-width:0.8"
       fill="none"
       stroke="#000000"
       stroke-width="0.800000"
       id="path430" />
  </g>
</svg>
