<?xml version="1.0" encoding="UTF-8" standalone="no"?>
<!-- Created with Inkscape (http://www.inkscape.org/) -->

<svg
   xmlns:dc="http://purl.org/dc/elements/1.1/"
   xmlns:cc="http://creativecommons.org/ns#"
   xmlns:rdf="http://www.w3.org/1999/02/22-rdf-syntax-ns#"
   xmlns:svg="http://www.w3.org/2000/svg"
   xmlns="http://www.w3.org/2000/svg"
   xmlns:sodipodi="http://sodipodi.sourceforge.net/DTD/sodipodi-0.dtd"
   xmlns:inkscape="http://www.inkscape.org/namespaces/inkscape"
   width="400.05011"
   height="493.05063"
   id="svg2"
   version="1.1"
   inkscape:version="0.48.4 r9939"
   sodipodi:docname="brain_schematics_top.svg">
  <defs
     id="defs4" />
  <sodipodi:namedview
     id="base"
     pagecolor="#ffffff"
     bordercolor="#666666"
     borderopacity="1.0"
     inkscape:pageopacity="0.0"
     inkscape:pageshadow="2"
     inkscape:zoom="1.4"
     inkscape:cx="200.22042"
     inkscape:cy="361.3747"
     inkscape:document-units="px"
     inkscape:current-layer="layer1"
     showgrid="false"
     inkscape:window-width="1920"
     inkscape:window-height="1180"
     inkscape:window-x="-2"
     inkscape:window-y="-3"
     inkscape:window-maximized="1"
     fit-margin-top="0"
     fit-margin-left="0"
     fit-margin-right="0"
     fit-margin-bottom="0"
     showguides="true"
     inkscape:guide-bbox="true" />
  <metadata
     id="metadata7">
    <rdf:RDF>
      <cc:Work
         rdf:about="">
        <dc:format>image/svg+xml</dc:format>
        <dc:type
           rdf:resource="http://purl.org/dc/dcmitype/StillImage" />
        <dc:title />
      </cc:Work>
    </rdf:RDF>
  </metadata>
  <g
     inkscape:label="Layer 1"
     inkscape:groupmode="layer"
     id="layer1"
     transform="translate(-28.737627,281.8872)">
    <path
       inkscape:connector-curvature="0"
       style="color:#f00000;fill:none;stroke:#a6a6a6;stroke-width:1.7;stroke-linecap:square;stroke-linejoin:round;stroke-miterlimit:4;stroke-opacity:1;stroke-dasharray:none;stroke-dashoffset:0;marker:none;visibility:visible;display:inline;overflow:visible;enable-background:accumulate"
       d="m 415.30647,-55.55846 c -0.44123,0.15782 -2.15618,0.23227 -3.811,0.16547 -1.65482,-0.0668 -6.47237,0.64313 -10.70567,1.57761 -6.04618,1.33467 -8.83186,1.65416 -12.98881,1.48968 l -5.29188,-0.2094 -4.28772,-3.50882 c -5.52741,-4.52331 -8.93603,-5.79108 -17.26187,-6.42025 -7.62562,-0.57624 -9.9402,-1.04929 -9.9402,-2.03153 0,-0.38375 0.74466,-1.77603 1.65482,-3.09397 1.36662,-1.97894 1.65482,-3.04151 1.65482,-6.10136 0,-3.24377 -0.23208,-3.99303 -1.86385,-6.01753 -1.02512,-1.27184 -3.17019,-3.12479 -4.76683,-4.11768 -2.52914,-1.57278 -3.46467,-1.80526 -7.26441,-1.80526 -3.73526,0 -4.57502,0.20067 -5.84925,1.39775 -1.9108,1.7951 -3.04087,4.91812 -4.58342,12.66653 -0.81792,4.1085 -1.86627,7.33164 -3.06764,9.43141 -2.41561,4.22207 -3.1178,9.76254 -1.9757,15.58893 1.01727,5.18957 0.93786,5.63576 -2.76558,15.54016 -3.05231,8.16302 -5.65471,16.86898 -6.36069,21.27874 -0.85155,5.3191 2.1973,10.86361 10.93669,19.88898 5.75609,5.94443 10.07618,9.00264 15.22474,10.7776 4.56091,1.57238 16.46823,1.44507 28.88414,-0.30883 15.93641,-2.25122 31.8929,-2.31224 31.8929,-0.12197 0,0.62841 -1.7237,2.12435 -3.51955,3.05451 -0.77738,0.40264 -7.27631,2.08806 -14.44207,3.74539 -26.67684,6.16991 -33.14088,9.53478 -32.35432,16.84206 0.16646,1.54627 0.99487,4.17746 1.84092,5.84708 0.84607,1.66962 1.5383,3.30178 1.5383,3.62702 0,0.32525 -1.7409,1.83363 -3.86866,3.35198 -7.20202,5.13924 -9.64575,9.44892 -8.16338,14.3966 1.77052,5.90951 6.84849,10.47875 19.47535,17.52422 3.64908,2.03611 6.73284,3.99642 6.85278,4.35625 0.40095,1.202877 -4.8843,1.418467 -11.54252,0.470867 -8.46803,-1.205197 -10.91706,-1.164267 -13.99664,0.23391 -3.84528,1.74582 -5.75277,5.04362 -5.68109,9.821843 0.0657,4.37985 0.99853,7.31747 5.77727,18.19369 4.08334,9.29354 6.33287,15.33534 6.33287,17.00895 0,1.0992 -0.21974,1.16675 -2.25658,0.69375 -1.24112,-0.28822 -5.27415,-0.53049 -8.9623,-0.53838 l -6.70573,-0.0144 -1.61998,-4.06183 c -2.09491,-5.25263 -3.99656,-7.70532 -6.65425,-8.58244 -5.09213,-1.68055 -11.63379,4.18488 -24.16895,21.67056 -4.02837,5.61932 -4.985,6.45475 -11.61276,10.14154 -5.60985,3.12058 -7.05303,4.32427 -7.54773,6.2953 -0.88414,3.52272 2.93152,10.25088 7.43213,13.10509 3.29611,2.09032 7.31329,2.3104 14.13801,0.77453 7.19773,-1.61982 7.08472,-1.40449 5.71383,-10.88604 -0.86179,-5.96042 -0.4391,-6.71667 4.14274,-7.41202 4.94796,-0.75091 11.02269,1.63629 11.02269,4.33161 0,1.18195 -6.25673,7.12678 -8.79278,8.35446 -1.45229,0.70304 -2.65977,1.3218 -2.68329,1.37502 -0.0235,0.0532 -0.25477,2.52206 -0.51387,5.48631 -0.46943,5.37043 -0.48005,5.39727 -2.99298,7.56156 -1.38704,1.19461 -4.055,3.10193 -5.9288,4.23849 -3.17391,1.92515 -3.75699,2.06649 -8.52533,2.06649 l -5.1184,0 -2.76903,-4.96512 c -1.52298,-2.73081 -3.52312,-5.75219 -4.44476,-6.71419 -2.2671,-2.36634 -8.06392,-4.8753 -12.91277,-5.58886 -8.92722,-1.31373 -9.81281,-2.01259 -9.7855,-7.72213 0.0117,-2.43931 0.57273,-4.90885 1.86408,-8.20488 2.44018,-6.22827 2.89332,-10.52611 1.53956,-14.60191 -1.03995,-3.13099 -1.03884,-3.14502 0.52497,-6.62965 0.86191,-1.92061 1.56712,-3.9471 1.56712,-4.50329 0,-0.55621 -0.98442,-3.27787 -2.18762,-6.04816 -1.20318,-2.77028 -2.03683,-5.42981 -1.85254,-5.91006 0.43515,-1.13399 10.26321,-4.69634 13.3244,-4.82965 2.28189,-0.0994 2.48666,0.0592 5.89003,4.56178 4.61344,6.10347 5.77931,6.87077 8.98187,5.91126 6.40049,-1.91764 13.4537,-13.02919 17.39914,-27.41045 3.39433,-12.37244 -0.77796,-22.08568 -12.91195,-30.05953 -6.80586,-4.47247 -8.02074,-4.71254 -22.61976,-4.46992 l -12.93166,0.21491 -1.11434,-2.36384 c -1.93155,-4.09736 -1.95334,-5.98598 -0.0972,-8.41955 1.00746,-1.32085 1.76689,-3.20768 1.95197,-4.84977 0.27518,-2.4413 0.11659,-2.87284 -1.72916,-4.70548 -2.51758,-2.49967 -9.37458,-6.53479 -16.3291,-9.60913 -4.52426,-2 -5.87491,-2.32806 -9.53741,-2.31648 -5.11837,0.0162 -8.89194,1.17991 -13.58674,4.19006 -1.92394,1.23356 -4.9874,2.96503 -6.80771,3.84772 -1.8203,0.88267 -4.52024,2.83942 -5.99987,4.34833 l -2.69024,2.74346 -0.47221,10.07172 c -0.25971,5.53944 -0.68352,11.01257 -0.94181,12.16249 l -0.4696,2.09078 -7.1995,-0.16433 c -8.40898,-0.19193 -12.14457,0.6043 -18.57733,3.95973 -5.11232,2.66666 -9.83592,7.17706 -12.18011,11.63034 -1.62585,3.08864 -1.71455,3.65321 -1.69408,10.78123 0.0234,8.15413 0.82371,12.27449 4.00272,20.60803 5.03298,13.19362 12.97794,22.11642 19.69268,22.11642 2.61242,0 2.90349,-0.19007 7.29978,-4.76718 4.89395,-5.09524 6.83152,-6.01191 10.90843,-5.16081 5.47643,1.14325 5.88889,3.24305 2.22961,11.35095 -2.02721,4.49172 -2.495,6.21421 -2.55745,9.41723 -0.0675,3.46453 0.15082,4.27476 1.87926,6.97284 1.07564,1.67904 1.9557,3.74337 1.9557,4.58739 0,0.84402 -0.88006,3.3928 -1.9557,5.66397 l -1.9557,4.12939 0.16344,10.38024 c 0.19014,12.07594 0.0275,12.33628 -4.65535,7.45215 -3.20855,-3.34645 -9.99218,-8.50522 -11.18411,-8.50522 -0.44038,0 -2.84502,1.89552 -5.34363,4.21227 -2.49862,2.31674 -4.90983,4.21227 -5.35826,4.21227 -1.11322,0 -2.18994,-1.34428 -5.24475,-6.54799 -2.88283,-4.91075 -4.73752,-6.36659 -8.9074,-6.99184 -5.98905,-0.89803 -7.415,-2.8645 -4.54791,-6.27185 2.37352,-2.82076 4.81597,-2.55737 10.44231,1.12607 5.04603,3.30352 13.33552,6.26715 17.15221,6.13219 4.79035,-0.16939 7.96967,-5.67163 6.10239,-10.56103 -1.46777,-3.84329 -3.87631,-6.32127 -12.51349,-12.87421 -4.39909,-3.33755 -12.33096,-9.90887 -17.62638,-14.60292 -11.04378,-9.78961 -12.55992,-10.7372 -15.33819,-9.5864 -3.84279,1.59173 -6.65164,7.07553 -11.40563,22.26755 -1.70887,5.46091 -3.35735,10.18012 -3.66329,10.48714 -0.34114,0.34233 -1.0781,-0.58855 -1.90558,-2.40701 -1.23075,-2.70466 -1.36965,-4.07571 -1.58065,-15.60204 -0.25209,-13.77126 -0.32083,-14.08378 -4.11966,-18.73309 l -2.03106,-2.48576 2.37696,-4.43439 c 3.66636,-6.83984 5.13295,-11.97664 5.13168,-17.97384 -0.002,-7.465033 -1.38167,-10.89246 -7.14479,-17.74389 l -2.37153,-2.81938 -0.0355,-6.129 c -0.0329,-5.67831 -0.18115,-6.42491 -2.01644,-10.15271 -2.33297,-4.73866 -5.44698,-7.66944 -10.95672,-10.31202 L 101.59274,54.58674 81.3325,54.28092 C 70.18937,54.11273 60.84716,53.74497 60.57203,53.46368 c -0.71754,-0.73359 3.53851,-4.23796 7.32351,-6.03007 5.74648,-2.72083 13.35159,-4.19105 31.59106,-6.10717 19.29578,-2.02708 20.59985,-2.62268 32.85595,-15.00603 9.12321,-9.21795 13.80849,-15.13348 14.74716,-18.61946 1.32853,-4.93376 -0.18626,-12.91851 -4.18529,-22.06156 -4.76378,-10.89147 -6.78232,-19.86474 -6.5569,-29.14824 0.11213,-4.61837 -0.10874,-6.05706 -1.50008,-9.77123 -0.89737,-2.3955 -2.57824,-8.28233 -3.73528,-13.08185 -2.29976,-9.53966 -3.10308,-11.25298 -5.79983,-12.37002 -5.48357,-2.27137 -16.57445,3.16001 -18.90294,9.25708 -1.1477,3.0052 -0.67442,5.73312 1.86361,10.74168 1.22118,2.40987 1.85022,4.69347 1.29296,4.69374 -2.99526,0.001 -19.96757,2.73935 -22.17065,3.57645 -4.86058,1.84688 -5.35806,2.54172 -5.36876,7.49873 -0.0101,4.69298 -0.2735,5.41832 -2.18365,6.01393 -2.39861,0.74791 -27.48179,-3.58555 -30.8571,-5.33099 -2.56621,-1.32704 -3.17286,-2.45602 -3.14652,-5.85573 0.0306,-3.95051 1.09448,-4.94942 4.60447,-4.32324 10.36983,1.84997 19.82271,-3.22375 21.62738,-11.60822 0.82804,-3.84711 -0.54192,-6.46073 -6.88941,-13.14372 -7.42612,-7.81861 -8.08472,-9.01041 -7.59079,-13.7361 0.20617,-1.97248 0.67876,-3.95253 1.05022,-4.4001 1.11411,-1.34242 3.48463,-0.93148 7.06858,1.22535 9.65834,5.81241 17.8148,8.79242 24.06534,8.79242 4.69044,0 6.5269,-0.52862 9.90004,-2.84972 4.56581,-3.1418 6.89146,-9.97339 6.19969,-18.21162 -0.95496,-11.37263 -3.03871,-13.42793 -21.30701,-21.01613 -11.26872,-4.6807 -12.76179,-5.4406 -12.76179,-6.4955 0,-0.538 1.30797,-2.4886 2.9066,-4.3345 5.15744,-5.9555 5.16904,-5.9863 4.31443,-11.48 -0.66209,-4.2561 -0.63452,-4.9753 0.24202,-6.3131 0.55866,-0.8526 1.5725,-1.5153 2.3293,-1.5225 0.73704,-0.01 4.9115,1.7971 9.27658,4.0092 9.11105,4.6174 12.42939,5.2862 17.69017,3.5655 4.57927,-1.4978 7.4731,-3.5667 10.57369,-7.5594 1.60504,-2.0668 4.65553,-4.8749 7.22607,-6.652 5.22997,-3.6154 6.30523,-5.0549 6.67859,-8.9404 0.49204,-5.1209 -1.09866,-7.5299 -9.2772,-14.05 -10.23923,-8.1629 -9.763,-7.4114 -7.82595,-12.3487 1.97208,-5.0265 1.97226,-5.3105 0.006,-9.9307 -4.46999,-10.5053 -3.69484,-12.2103 4.30047,-9.4595 5.15388,1.7732 7.2436,1.6022 9.6343,-0.7885 2.29561,-2.2957 3.03062,-4.7108 3.60257,-11.8375 0.44024,-5.4855 1.03011,-7.2319 2.44268,-7.2319 0.49185,0 4.04226,3.0617 7.88981,6.8038 l 6.99554,6.8037 -1.6991,5.0809 c -2.37537,7.1032 -2.35131,11.6935 0.0795,15.1619 2.30943,3.2953 5.73183,4.6731 8.6279,3.4735 5.64952,-2.3401 13.72492,-19.9495 14.79006,-32.2514 0.61273,-7.0769 -0.30539,-10.869 -4.21968,-17.4287 -4.98369,-8.3518 -4.57797,-8.8879 4.08331,-5.3954 8.6484,3.4874 11.30259,2.8503 17.61174,-4.227 8.01322,-8.9888 7.66998,-8.7106 10.7468,-8.7106 l 2.77874,0 -0.32108,6.7697 c -1.00959,21.2856 -0.65242,19.3464 -5.7353,31.1407 -3.62121,8.4027 -9.39828,14.1352 -9.39828,17.414 0,1.0426 -0.3629,4.03945 0.98034,5.7984 l 0.98034,3.9027 -1.98118,5.832 c -2.18134,6.4212 -2.64363,12.4478 -1.26629,16.5074 1.44229,4.2508 7.66726,8.5494 13.82876,9.5491 4.73474,0.7682 6.62897,1.6685 7.64512,3.6335 1.27023,2.4564 1.07726,5.7568 -0.63013,10.7767 -2.08228,6.1222 -1.99819,9.3676 0.32585,12.5758 3.56123,4.9161 11.39749,8.8463 18.93024,9.4942 4.03593,0.3471 6.69776,-0.5506 13.21219,-4.456 8.672,-5.1988 11.70798,-9.0551 12.1951,-15.4901 0.23603,-3.1181 -0.0291,-4.4078 -1.88521,-9.1718 -2.46393,-6.324 -2.7625,-9.4363 -0.9959,-10.3817 0.64017,-0.3426 3.00956,-0.6245 5.26533,-0.6263 9.73874,-0.01 12.77528,-2.6827 16.17155,-14.2447 2.22944,-7.5898 2.1532,-11.1754 -0.34553,-16.2511 -2.65368,-5.3904 -6.73877,-13.6146 -12.21765,-16.4967 -2.14019,-1.1259 -4.91577,-3.0205 -6.16796,-4.2104 -3.11182,-2.957 -3.05717,-4.9977 0.28075,-10.483 l 2.55745,-4.2027 0,-11.4911 c 0,-12.0046 0.29453,-13.4816 2.6883,-13.4816 1.36043,0 2.11548,0.9458 6.54306,8.1966 4.4634,7.3094 7.86276,11.3013 10.97667,12.8899 3.14538,1.6046 4.70048,1.4854 7.82075,-0.5994 3.39416,-2.2679 5.62352,-5.1139 7.84677,-10.0172 1.96599,-4.3359 3.0153,-5.1131 4.76518,-3.5295 1.52256,1.3779 1.5206,3.9368 -0.0101,13.2183 -1.52142,9.2252 -1.50934,10.2295 0.24549,20.408 0.80373,4.6619 1.64457,10.3716 1.86852,12.6884 0.50683,5.2429 1.49071,7.1962 4.3549,8.6461 4.03951,2.0447 5.81478,2.1288 9.48358,0.4492 4.64532,-2.1267 12.29025,-7.203 19.50989,-12.9546 7.50419,-5.9784 9.01835,-6.7886 12.24802,-6.5539 2.38953,0.1736 2.53403,0.2925 2.7194,2.2359 0.10769,1.1288 -0.34295,3.5659 -1.0014,5.4157 -0.65845,1.8499 -2.33585,7.4252 -3.72756,12.3896 -1.39171,4.9645 -4.14504,13.0798 -6.1185,18.034 -5.51746,13.8511 -5.04198,16.9743 3.95375,25.9701 6.39228,6.3923 9.89393,8.1162 17.28775,8.5113 7.00266,0.3742 10.24584,-0.6688 18.30643,-5.8874 7.43863,-4.8159 8.87551,-5.0749 10.70537,-1.93 1.59699,2.7447 4.0396,10.1242 4.42582,13.3712 0.41107,3.4558 -0.56512,4.4284 -8.15043,8.1202 -7.02325,3.4183 -9.72932,5.2893 -14.04859,9.7133 -10.19815,10.4454 -13.94576,24.24083 -8.51821,31.35672 2.07422,2.71944 7.15111,5.98326 10.438,6.71035 3.27975,0.72552 8.71496,-0.23692 16.46576,-2.91567 5.58908,-1.93163 7.89716,-2.25494 8.55056,-1.19774 0.21694,0.35103 0.0477,2.38266 -0.37608,4.51471 -0.68055,3.42385 -0.6522,4.12459 0.24282,6.00146 0.78105,1.63793 1.0133,3.83379 1.0133,9.58032 0,7.16193 0.0619,7.52892 1.57366,9.3255 3.49053,4.14826 8.39968,6.55431 14.62575,7.16832 3.6229,0.35729 5.4733,1.48669 3.55805,2.17167 z"
       id="path3943"
       sodipodi:nodetypes="cssscsssssssssssssssssssscssssssssssssscssssssssssscsssscssscsssssscssssscssssssssscsscssssssssscssscssssssssssssssscssscscscssscssssssssssssscsssssssssssssssscscccsscssscscssscscsssssscsssscscscssssssccsscsscsssccssssscsscccsssssssssssscscssscc" />
    <path
       inkscape:connector-curvature="0"
       style="font-size:medium;font-style:normal;font-variant:normal;font-weight:normal;font-stretch:normal;text-indent:0;text-align:start;text-decoration:none;line-height:normal;letter-spacing:normal;word-spacing:normal;text-transform:none;direction:ltr;block-progression:tb;writing-mode:lr-tb;text-anchor:start;baseline-shift:baseline;color:#000000;fill:none;stroke:#000000;stroke-width:2;stroke-miterlimit:4;stroke-opacity:1;stroke-dasharray:none;marker:none;visibility:visible;display:inline;overflow:visible;enable-background:accumulate;font-family:Sans;-inkscape-font-specification:Sans"
       d="m 30.24569,3.85483 c -0.11957,-13.07607 1.08258,-27.08417 4.15132,-51.5657 1.28198,-10.22734 11.05909,-44.61405 16.81004,-59.04925 2.51109,-6.30292 6.84742,-20.58952 9.66159,-31.79572 6.24656,-24.8743 7.98634,-29.5519 19.49072,-52.5151 11.26629,-22.488 23.09494,-40.3704 33.48979,-50.6536 6.64524,-6.5738 11.12235,-9.5908 27.08595,-18.2434 22.55888,-12.2274 29.42799,-15.3621 39.03729,-17.8712 10.29996,-2.6893 19.43164,-1.7137 31.0325,3.3136 6.45902,2.7991 10.92313,4.1851 15.46971,4.0955 4.54658,-0.09 9.14128,-1.6519 15.86064,-4.7098 8.6213,-3.9234 11.68617,-4.7571 19.2301,-5.1752 10.36627,-0.5744 23.68675,2.3149 34.15995,7.4277 7.72155,3.7696 35.12506,19.6125 41.42011,23.9399 10.38559,7.1394 19.79215,19.6668 37.38048,49.8344 10.69808,18.3495 16.50521,31.5878 19.63964,44.7524 5.53646,23.253 7.85576,30.9812 12.75181,42.444 5.33177,12.48285 13.92926,44.40708 16.21434,60.25922 1.06736,7.40449 2.27433,21.76994 3.10884,35.16521 0.41725,6.69762 0.73764,13.15325 0.91217,18.39238 0.17454,5.23914 0.18556,9.26644 0,11.03916 -1.13079,10.80258 -5.60463,30.70658 -9.56851,42.53705 -13.69876,40.884707 -38.16382,77.89769 -71.72659,108.51135 -27.92508,25.47133 -46.94303,37.04151 -66.42109,40.43347 -8.65578,1.50734 -16.38822,0.0774 -28.63107,-5.3055 -6.40029,-2.81404 -10.62717,-4.17474 -15.19047,-3.83485 -4.56331,0.33989 -9.39954,2.35699 -17.08929,6.21767 -16.02045,8.04316 -22.90484,9.43047 -36.11461,7.22292 -9.19278,-1.53624 -26.7205,-8.27828 -36.74754,-14.14799 -24.1305,-14.1257 -53.93245,-39.61267 -66.1977,-56.55473 C 63.68213,116.21665 45.76122,83.19442 39.51635,64.39331 34.11597,48.13468 32.25404,37.97776 30.78555,16.97892 30.47054,12.47439 30.28555,8.21349 30.24569,3.8548 z"
       id="path3105" />
    <path
       style="fill:none;stroke:#000000;stroke-width:0.8;stroke-linecap:butt;stroke-linejoin:miter;stroke-miterlimit:4;stroke-opacity:1;stroke-dasharray:none"
       d="m 37.24871,-59.99417 c 8.08456,-25.95572 18.12639,-47.6342 35.31678,-65.52757 5.59495,-5.8237 20.84967,-12.3396 20.84967,-12.3396"
       id="path3967"
       inkscape:connector-curvature="0"
       sodipodi:nodetypes="cac" />
    <path
       style="fill:none;stroke:#000000;stroke-width:0.8;stroke-linecap:butt;stroke-linejoin:miter;stroke-miterlimit:4;stroke-opacity:1;stroke-dasharray:none"
       d="m 421.05285,-59.99417 c -8.08456,-25.9557 -19.25661,-46.61319 -35.31679,-65.52756 -5.8457,-6.8846 -21.45141,-16.5518 -21.45141,-16.5518"
       id="path3967-3"
       inkscape:connector-curvature="0"
       sodipodi:nodetypes="cac" />
    <path
       style="fill:none;stroke:#a6a6a6;stroke-width:1.7;stroke-linecap:butt;stroke-linejoin:miter;stroke-miterlimit:4;stroke-opacity:0.98823529;stroke-dasharray:none"
       d="m 152.13465,33.44639 c -1.70202,15.31812 0.851,19.57316 5.95705,19.14766 5.10604,-0.42551 32.9765,-23.36015 39.57181,-36.76351 12.43449,-25.27009 15.95638,-26.46631 18.29665,-51.57102 3.12105,-33.48039 8.29732,-50.42216 -2.97852,-67.65505 -11.36096,-17.36301 -28.81607,-26.10061 -30.849,-23.82821 -2.81564,3.1474 2.76577,14.0416 2.76577,14.0416"
       id="path4131"
       inkscape:connector-curvature="0"
       sodipodi:nodetypes="csssssc" />
    <path
       style="fill:none;stroke:#000000;stroke-width:2;stroke-linecap:butt;stroke-linejoin:miter;stroke-miterlimit:4;stroke-opacity:1;stroke-dasharray:none"
       d="m 219.7897,200.83946 c 5.53155,-6.1698 5.99531,-21.79173 5.74429,-32.33827 -0.41841,-17.58034 -5.63685,-102.64977 -6.16979,-154.03226 -0.45758,-44.11636 2.23245,-88.21401 2.55302,-132.33157 0.36975,-50.8864 1.75364,-147.5273 -0.72638,-152.6614"
       id="path3987"
       inkscape:connector-curvature="0"
       sodipodi:nodetypes="csaac" />
    <path
       style="fill:none;stroke:#a6a6a6;stroke-width:1.7;stroke-linecap:butt;stroke-linejoin:miter;stroke-miterlimit:4;stroke-opacity:0.7372549;stroke-dasharray:none"
       d="m 302.7738,33.44639 c 1.70202,15.31812 -0.851,19.57316 -5.95705,19.14766 -5.10604,-0.4255 -32.97651,-23.36014 -39.57182,-36.7635 -12.43449,-25.2701 -15.95638,-26.46632 -18.29665,-51.57103 -3.12105,-33.48039 -8.29731,-50.42215 2.97853,-67.65505 11.36095,-17.36301 28.81606,-26.10061 30.84899,-23.82821 2.81564,3.1474 -2.76576,14.0416 -2.76576,14.0416"
       id="path4131-4"
       inkscape:connector-curvature="0"
       sodipodi:nodetypes="csssssc" />
    <path
       style="fill:none;stroke:#000000;stroke-width:2;stroke-linecap:butt;stroke-linejoin:miter;stroke-miterlimit:4;stroke-opacity:1;stroke-dasharray:none"
       d="m 246.86343,198.03115 c -3.40403,-5.74429 -8.32075,-19.15831 -9.99933,-29.35974 -4.42715,-26.90568 1.6567,-105.81068 1.06375,-158.71281 -0.4914,-43.84269 -3.60442,-87.63571 -3.82953,-131.48054 -0.25912,-50.47 0.37388,-146.2508 2.8539,-151.3849"
       id="path3987-1"
       inkscape:connector-curvature="0"
       sodipodi:nodetypes="csaac" />
    <path
       style="fill:none;stroke:#000000;stroke-width:0.8;stroke-linecap:butt;stroke-linejoin:miter;stroke-miterlimit:4;stroke-opacity:1;stroke-dasharray:none"
       d="M 218.9387,22.128 C 196.86932,14.12162 190.46167,-1.63863 175.53734,-6.38074 133.54255,-19.7243 113.41383,-9.35926 100.22322,-17.44383 87.03261,-25.52839 89.58563,-45.73981 79.79906,-49.35659 67.4199,-53.9315 67.88496,-50.2076 58.52388,-57.01565 49.16281,-63.82371 41.07824,-77.86532 41.07824,-77.86532"
       id="path4007"
       inkscape:connector-curvature="0"
       sodipodi:nodetypes="cssssc" />
    <path
       style="fill:none;stroke:#000000;stroke-width:0.8;stroke-linecap:butt;stroke-linejoin:miter;stroke-miterlimit:4;stroke-opacity:1;stroke-dasharray:none"
       d="m 237.87359,21.06424 c 5.7443,-7.65907 14.25437,-14.67987 22.55169,-18.0839 23.2794,-9.55053 37.36354,-12.77229 47.23088,-12.97786 10.21209,-0.21275 31.06175,1.06376 36.16779,-0.85101 4.92808,-1.84802 18.72216,-8.51006 22.5517,-21.70067 3.82953,-13.19061 8.08457,-24.89196 25.74296,-33.61478 17.03545,-8.41509 25.10471,-15.10537 25.10471,-15.10537"
       id="path4027"
       inkscape:connector-curvature="0"
       sodipodi:nodetypes="csssssc" />
    <path
       style="fill:none;stroke:#000000;stroke-width:0.8;stroke-linecap:butt;stroke-linejoin:miter;stroke-miterlimit:4;stroke-opacity:1;stroke-dasharray:none"
       d="m 220.2152,-59.994164 c -14.04161,0 -20.78142,-4.093803 -29.99799,-7.446317 -13.46314,-4.897189 -19.73139,-4.905785 -23.61544,-3.616781 -7.46587,2.477716 -15.75239,12.487494 -25.95571,9.361079 -7.13358,-2.185808 -10.93441,-11.317868 -24.89196,-18.296646 -8.08456,-4.042287 -15.53088,-14.467116 -30.423502,-11.914098"
       id="path4029"
       inkscape:connector-curvature="0"
       sodipodi:nodetypes="cssssc" />
    <path
       style="fill:none;stroke:#000000;stroke-width:0.8;stroke-linecap:butt;stroke-linejoin:miter;stroke-miterlimit:4;stroke-opacity:1;stroke-dasharray:none"
       d="m 127.97976,-72.082303 c 7.65907,-7.233561 15.20985,-37.281387 15.64481,-45.780337 1.48924,-29.09891 -1.2765,-49.78391 2.55303,-65.52754 3.82953,-15.74363 9.99933,-17.87114 16.16913,-25.1047 8.62655,-10.11389 23.8282,-9.36108 23.4027,-32.76377"
       id="path4031"
       inkscape:connector-curvature="0"
       sodipodi:nodetypes="csssc" />
    <path
       style="fill:none;stroke:#000000;stroke-width:0.8;stroke-linecap:butt;stroke-linejoin:miter;stroke-miterlimit:4;stroke-opacity:1;stroke-dasharray:none"
       d="m 235.7688,-61.799434 c 16.83605,1.710119 30.57143,-5.825148 45.48978,-2.939435 10.95361,2.118798 21.76991,1.655941 31.97324,-1.470473 7.13357,-2.185808 16.35018,-6.503847 30.30773,-13.482625 8.08456,-4.042286 18.53964,-11.759226 31.02525,-11.914097"
       id="path4029-3"
       inkscape:connector-curvature="0"
       sodipodi:nodetypes="csssc" />
    <path
       style="fill:none;stroke:#000000;stroke-width:0.8;stroke-linecap:butt;stroke-linejoin:miter;stroke-miterlimit:4;stroke-opacity:1;stroke-dasharray:none"
       d="m 334.62353,-75.091082 c -7.65907,-7.233561 -16.55589,-36.367648 -16.54744,-44.877708 0.0151,-15.2586 3.29046,-30.63919 -1.95128,-45.97057 -7.44004,-21.76115 8.35413,-35.92372 -6.54109,-50.6792 -9.44387,-9.35527 -17.50979,-24.70577 -27.01321,-31.56026"
       id="path4031-7"
       inkscape:connector-curvature="0"
       sodipodi:nodetypes="csssc" />
    <path
       style="fill:none;stroke:#000000;stroke-width:0.8;stroke-linecap:butt;stroke-linejoin:miter;stroke-miterlimit:4;stroke-opacity:1;stroke-dasharray:none"
       d="m 140.73992,-259.79804 c 1.2035,10.2298 3.61051,12.336 6.92016,17.4509 5.94973,9.195 -0.0996,20.9521 -12.93769,32.7955 -14.39997,13.2843 -26.44287,22.9399 -27.98151,29.7868 -1.76314,7.8458 -0.35985,12.0843 -12.03505,19.8578"
       id="path4061"
       inkscape:connector-curvature="0"
       sodipodi:nodetypes="csssc" />
    <path
       style="fill:none;stroke:#000000;stroke-width:0.8;stroke-linecap:butt;stroke-linejoin:miter;stroke-miterlimit:4;stroke-opacity:1;stroke-dasharray:none"
       d="m 325.31468,-256.60674 c -0.778,3.4217 1.07003,7.6554 -1.38861,10.2173 -7.58343,7.9018 1.16341,16.9098 14.00145,28.7532 14.39996,13.2844 20.27307,22.5144 21.81171,29.3613"
       id="path4061-3"
       inkscape:connector-curvature="0"
       sodipodi:nodetypes="cssc" />
    <path
       style="fill:none;stroke:#000000;stroke-width:0.8;stroke-linecap:butt;stroke-linejoin:miter;stroke-miterlimit:4;stroke-opacity:1;stroke-dasharray:none"
       d="m 34.53055,-41.06087 c 9.02629,14.14119 14.74294,20.15872 24.37099,41.22007 9.62804,21.06135 9.02629,27.68063 21.6631,37.91043 12.63681,10.22979 13.59466,16.93724 14.74294,24.37098 2.62533,16.99584 11.44927,31.276747 17.14996,37.60957 11.26677,12.51609 15.11253,12.75581 24.97274,28.28237 4.22701,6.65615 10.83155,15.64558 10.83155,30.99028"
       id="path4103"
       inkscape:connector-curvature="0"
       sodipodi:nodetypes="csssssc" />
    <path
       style="fill:none;stroke:#000000;stroke-width:0.8;stroke-linecap:butt;stroke-linejoin:miter;stroke-miterlimit:4;stroke-opacity:1;stroke-dasharray:none"
       d="m 91.96462,50.63673 c 13.61611,-1.27651 28.25726,-11.06309 47.83043,-0.85101 20.00556,15.01141 21.95689,21.47497 37.8698,34.89129"
       id="path4105"
       inkscape:connector-curvature="0"
       sodipodi:nodetypes="ccc" />
    <path
       style="fill:none;stroke:#000000;stroke-width:0.8;stroke-linecap:butt;stroke-linejoin:miter;stroke-miterlimit:4;stroke-opacity:1;stroke-dasharray:none"
       d="m 222.72874,115.24443 c -12.93769,3.30963 -43.3262,-0.30088 -43.3262,-0.30088"
       id="path4107"
       inkscape:connector-curvature="0"
       sodipodi:nodetypes="cc" />
    <path
       style="fill:none;stroke:#000000;stroke-width:0.8;stroke-linecap:butt;stroke-linejoin:miter;stroke-miterlimit:4;stroke-opacity:1;stroke-dasharray:none"
       d="m 235.38671,114.94355 c 12.93769,3.30964 26.73156,-0.30087 26.73156,-0.30087"
       id="path4107-7"
       inkscape:connector-curvature="0"
       sodipodi:nodetypes="cc" />
    <path
       style="fill:none;stroke:#000000;stroke-width:0.8;stroke-linecap:butt;stroke-linejoin:miter;stroke-miterlimit:4;stroke-opacity:1;stroke-dasharray:none"
       d="m 423.86461,-53.3968 c -13.6213,20.12222 -27.01884,40.54404 -31.88663,47.57756 -12.73372,18.3991 -17.78883,24.09189 -20.39286,42.52056 -2.64238,18.70007 -13.27506,34.2457 -19.81508,38.31195 -11.21941,6.97567 -19.13929,11.17833 -26.96208,18.399363 -7.82278,7.221037 -30.01932,18.371717 -30.01932,18.371717"
       id="path4127"
       inkscape:connector-curvature="0"
       sodipodi:nodetypes="cssssc" />
    <path
       style="fill:none;stroke:#000000;stroke-width:0.8;stroke-linecap:butt;stroke-linejoin:miter;stroke-miterlimit:4;stroke-opacity:1;stroke-dasharray:none"
       d="m 374.53444,23.15043 c -37.30868,10.2298 -49.69726,6.1698 -63.48336,3.85351 -0.92929,34.26854 -16.12683,48.3952 -38.22642,58.90503"
       id="path4129"
       inkscape:connector-curvature="0"
       sodipodi:nodetypes="ccc" />
  </g>
</svg>
