<?xml version="1.0" encoding="UTF-8" standalone="no"?>
<!DOCTYPE svg PUBLIC "-//W3C//DTD SVG 1.1//EN"
 "http://www.w3.org/Graphics/SVG/1.1/DTD/svg11.dtd">
<!-- Generated by graphviz version 2.43.0 (0)
 -->
<!-- Title: G Pages: 1 -->
<svg width="1534pt" height="842pt"
 viewBox="0.00 0.00 1534.43 842.43" xmlns="http://www.w3.org/2000/svg" xmlns:xlink="http://www.w3.org/1999/xlink">
<g id="graph0" class="graph" transform="scale(1 1) rotate(0) translate(4 838.43)">
<title>G</title><style>.edge>path:hover{stroke-width:8}</style>
<polygon fill="white" stroke="transparent" points="-4,4 -4,-838.43 1530.43,-838.43 1530.43,4 -4,4"/>
<!-- nilearn -->
<g id="node1" class="node">
<title>nilearn</title><style>.edge>path:hover{stroke-width:8}</style>
<ellipse fill="#f90606" stroke="black" cx="29.43" cy="-738" rx="29.37" ry="18"/>
<text text-anchor="middle" x="29.43" y="-735.5" font-family="Helvetica,sans-Serif" font-size="10.00" fill="#ffffff">nilearn</text>
</g>
<!-- nilearn__utils -->
<g id="node2" class="node">
<title>nilearn__utils</title><style>.edge>path:hover{stroke-width:8}</style>
<polygon fill="blue" stroke="black" points="1122.43,-684 1042.43,-684 1042.43,-648 1122.43,-648 1122.43,-684"/>
<text text-anchor="middle" x="1082.43" y="-663.5" font-family="Helvetica,sans-Serif" font-size="10.00" fill="white">nilearn._utils</text>
</g>
<!-- nilearn_connectome -->
<g id="node4" class="node">
<title>nilearn_connectome</title><style>.edge>path:hover{stroke-width:8}</style>
<polygon fill="blue" stroke="black" points="1344.93,-468 1267.93,-468 1267.93,-432 1344.93,-432 1344.93,-468"/>
<text text-anchor="middle" x="1306.43" y="-453" font-family="Helvetica,sans-Serif" font-size="10.00" fill="white">nilearn.</text>
<text text-anchor="middle" x="1306.43" y="-442" font-family="Helvetica,sans-Serif" font-size="10.00" fill="white">connectome</text>
</g>
<!-- nilearn__utils&#45;&gt;nilearn_connectome -->
<g id="edge1" class="edge">
<title>nilearn__utils&#45;&gt;nilearn_connectome</title><style>.edge>path:hover{stroke-width:8}</style>
<path fill="none" stroke="black" d="M1132.49,-650.73C1182.4,-633.52 1256.28,-599.24 1289.43,-540 1300.03,-521.07 1304.14,-496.7 1305.68,-478.25"/>
<polygon fill="blue" stroke="black" points="1131.22,-647.46 1122.85,-653.95 1133.44,-654.1 1131.22,-647.46"/>
<polygon fill="blue" stroke="black" points="1309.18,-478.36 1306.32,-468.16 1302.2,-477.92 1309.18,-478.36"/>
</g>
<!-- nilearn_datasets -->
<g id="node5" class="node">
<title>nilearn_datasets</title><style>.edge>path:hover{stroke-width:8}</style>
<polygon fill="blue" stroke="black" points="723.93,-612 664.93,-612 664.93,-576 723.93,-576 723.93,-612"/>
<text text-anchor="middle" x="694.43" y="-597" font-family="Helvetica,sans-Serif" font-size="10.00" fill="white">nilearn.</text>
<text text-anchor="middle" x="694.43" y="-586" font-family="Helvetica,sans-Serif" font-size="10.00" fill="white">datasets</text>
</g>
<!-- nilearn__utils&#45;&gt;nilearn_datasets -->
<g id="edge2" class="edge">
<title>nilearn__utils&#45;&gt;nilearn_datasets</title><style>.edge>path:hover{stroke-width:8}</style>
<path fill="none" stroke="black" d="M1032.01,-658.5C967.68,-649.82 853.16,-633.06 756.43,-612 749.16,-610.42 741.47,-608.5 734.07,-606.54"/>
<polygon fill="blue" stroke="black" points="1031.9,-662.02 1042.28,-659.87 1032.83,-655.08 1031.9,-662.02"/>
<polygon fill="blue" stroke="black" points="734.8,-603.11 724.23,-603.86 732.96,-609.87 734.8,-603.11"/>
</g>
<!-- nilearn_decoding -->
<g id="node6" class="node">
<title>nilearn_decoding</title><style>.edge>path:hover{stroke-width:8}</style>
<polygon fill="blue" stroke="black" points="1030.93,-180 969.93,-180 969.93,-144 1030.93,-144 1030.93,-180"/>
<text text-anchor="middle" x="1000.43" y="-165" font-family="Helvetica,sans-Serif" font-size="10.00" fill="white">nilearn.</text>
<text text-anchor="middle" x="1000.43" y="-154" font-family="Helvetica,sans-Serif" font-size="10.00" fill="white">decoding</text>
</g>
<!-- nilearn__utils&#45;&gt;nilearn_decoding -->
<g id="edge3" class="edge">
<title>nilearn__utils&#45;&gt;nilearn_decoding</title><style>.edge>path:hover{stroke-width:8}</style>
<path fill="none" stroke="black" d="M1119.56,-641.5C1129.13,-633.42 1138.2,-623.47 1143.43,-612 1189.89,-510.09 1159.27,-470.87 1143.43,-360 1138.72,-327 1139.24,-316.79 1122.43,-288 1098.63,-247.24 1058.68,-209.84 1031.01,-186.78"/>
<polygon fill="blue" stroke="black" points="1117.18,-638.91 1111.47,-647.84 1121.5,-644.42 1117.18,-638.91"/>
<polygon fill="blue" stroke="black" points="1033.16,-184.01 1023.2,-180.38 1028.72,-189.43 1033.16,-184.01"/>
</g>
<!-- nilearn_decomposition -->
<g id="node7" class="node">
<title>nilearn_decomposition</title><style>.edge>path:hover{stroke-width:8}</style>
<polygon fill="blue" stroke="black" points="1190.93,-180 1101.93,-180 1101.93,-144 1190.93,-144 1190.93,-180"/>
<text text-anchor="middle" x="1146.43" y="-165" font-family="Helvetica,sans-Serif" font-size="10.00" fill="white">nilearn.</text>
<text text-anchor="middle" x="1146.43" y="-154" font-family="Helvetica,sans-Serif" font-size="10.00" fill="white">decomposition</text>
</g>
<!-- nilearn__utils&#45;&gt;nilearn_decomposition -->
<g id="edge4" class="edge">
<title>nilearn__utils&#45;&gt;nilearn_decomposition</title><style>.edge>path:hover{stroke-width:8}</style>
<path fill="none" stroke="black" d="M1132.6,-662.68C1215.84,-655.84 1373.43,-628.9 1373.43,-523 1373.43,-523 1373.43,-523 1373.43,-449 1373.43,-328.21 1247.68,-228.79 1183.37,-185.85"/>
<polygon fill="blue" stroke="black" points="1132.3,-659.19 1122.59,-663.43 1132.82,-666.17 1132.3,-659.19"/>
<polygon fill="blue" stroke="black" points="1185,-182.73 1174.72,-180.16 1181.16,-188.58 1185,-182.73"/>
</g>
<!-- nilearn_glm -->
<g id="node9" class="node">
<title>nilearn_glm</title><style>.edge>path:hover{stroke-width:8}</style>
<polygon fill="blue" stroke="black" points="729.43,-108 657.43,-108 657.43,-72 729.43,-72 729.43,-108"/>
<text text-anchor="middle" x="693.43" y="-87.5" font-family="Helvetica,sans-Serif" font-size="10.00" fill="white">nilearn.glm</text>
</g>
<!-- nilearn__utils&#45;&gt;nilearn_glm -->
<g id="edge5" class="edge">
<title>nilearn__utils&#45;&gt;nilearn_glm</title><style>.edge>path:hover{stroke-width:8}</style>
<path fill="none" stroke="black" d="M1132.62,-660.55C1201,-653.6 1318.83,-638.18 1352.43,-612 1436.8,-546.29 1412.43,-485.93 1412.43,-379 1412.43,-379 1412.43,-379 1412.43,-305 1412.43,-194.99 1325.66,-187.06 1224.43,-144 1147.8,-111.4 934.28,-116.45 851.43,-108 813.83,-104.16 771.22,-99.56 739.73,-96.12"/>
<polygon fill="blue" stroke="black" points="1132.1,-657.09 1122.49,-661.56 1132.79,-664.05 1132.1,-657.09"/>
<polygon fill="blue" stroke="black" points="739.83,-92.61 729.5,-94.99 739.06,-99.56 739.83,-92.61"/>
</g>
<!-- nilearn_image -->
<g id="node10" class="node">
<title>nilearn_image</title><style>.edge>path:hover{stroke-width:8}</style>
<polygon fill="blue" stroke="black" points="961.43,-468 877.43,-468 877.43,-432 961.43,-432 961.43,-468"/>
<text text-anchor="middle" x="919.43" y="-447.5" font-family="Helvetica,sans-Serif" font-size="10.00" fill="white">nilearn.image</text>
</g>
<!-- nilearn__utils&#45;&gt;nilearn_image -->
<g id="edge6" class="edge">
<title>nilearn__utils&#45;&gt;nilearn_image</title><style>.edge>path:hover{stroke-width:8}</style>
<path fill="none" stroke="black" d="M1033.03,-646.53C1015.84,-638.13 997.59,-626.72 984.43,-612 966.05,-591.43 940.72,-517.95 927.78,-477.75"/>
<polygon fill="blue" stroke="black" points="1031.89,-649.86 1042.43,-650.89 1034.83,-643.51 1031.89,-649.86"/>
<polygon fill="blue" stroke="black" points="931.06,-476.53 924.69,-468.06 924.39,-478.66 931.06,-476.53"/>
</g>
<!-- nilearn_interfaces -->
<g id="node11" class="node">
<title>nilearn_interfaces</title><style>.edge>path:hover{stroke-width:8}</style>
<polygon fill="blue" stroke="black" points="610.93,-36 545.93,-36 545.93,0 610.93,0 610.93,-36"/>
<text text-anchor="middle" x="578.43" y="-21" font-family="Helvetica,sans-Serif" font-size="10.00" fill="white">nilearn.</text>
<text text-anchor="middle" x="578.43" y="-10" font-family="Helvetica,sans-Serif" font-size="10.00" fill="white">interfaces</text>
</g>
<!-- nilearn__utils&#45;&gt;nilearn_interfaces -->
<g id="edge7" class="edge">
<title>nilearn__utils&#45;&gt;nilearn_interfaces</title><style>.edge>path:hover{stroke-width:8}</style>
<path fill="none" stroke="black" d="M1132.62,-660.55C1201,-653.6 1318.83,-638.18 1352.43,-612 1385.42,-586.31 1450.43,-435.93 1450.43,-379 1450.43,-379 1450.43,-379 1450.43,-305 1450.43,-260.47 1434.9,-248.47 1404.43,-216 1383.15,-193.32 1313.56,-154.89 1284.43,-144 1221.66,-120.53 764.86,-48.08 621.41,-25.68"/>
<polygon fill="blue" stroke="black" points="1132.1,-657.09 1122.49,-661.56 1132.79,-664.05 1132.1,-657.09"/>
<polygon fill="blue" stroke="black" points="621.66,-22.17 611.24,-24.09 620.59,-29.09 621.66,-22.17"/>
</g>
<!-- nilearn_maskers -->
<g id="node12" class="node">
<title>nilearn_maskers</title><style>.edge>path:hover{stroke-width:8}</style>
<polygon fill="blue" stroke="black" points="837.43,-252 779.43,-252 779.43,-216 837.43,-216 837.43,-252"/>
<text text-anchor="middle" x="808.43" y="-237" font-family="Helvetica,sans-Serif" font-size="10.00" fill="white">nilearn.</text>
<text text-anchor="middle" x="808.43" y="-226" font-family="Helvetica,sans-Serif" font-size="10.00" fill="white">maskers</text>
</g>
<!-- nilearn__utils&#45;&gt;nilearn_maskers -->
<g id="edge8" class="edge">
<title>nilearn__utils&#45;&gt;nilearn_maskers</title><style>.edge>path:hover{stroke-width:8}</style>
<path fill="none" stroke="black" d="M1083.09,-637.88C1083.23,-569.22 1073.78,-386.93 975.43,-288 934.98,-247.3 905.73,-270.57 851.43,-252 850.01,-251.51 848.56,-251.01 847.11,-250.48"/>
<polygon fill="blue" stroke="black" points="1079.59,-637.87 1083,-647.9 1086.59,-637.93 1079.59,-637.87"/>
<polygon fill="blue" stroke="black" points="848.03,-247.1 837.44,-246.9 845.6,-253.66 848.03,-247.1"/>
</g>
<!-- nilearn_masking -->
<g id="node13" class="node">
<title>nilearn_masking</title><style>.edge>path:hover{stroke-width:8}</style>
<polygon fill="blue" stroke="black" points="819.93,-396 760.93,-396 760.93,-360 819.93,-360 819.93,-396"/>
<text text-anchor="middle" x="790.43" y="-381" font-family="Helvetica,sans-Serif" font-size="10.00" fill="white">nilearn.</text>
<text text-anchor="middle" x="790.43" y="-370" font-family="Helvetica,sans-Serif" font-size="10.00" fill="white">masking</text>
</g>
<!-- nilearn__utils&#45;&gt;nilearn_masking -->
<g id="edge9" class="edge">
<title>nilearn__utils&#45;&gt;nilearn_masking</title><style>.edge>path:hover{stroke-width:8}</style>
<path fill="none" stroke="black" d="M1032.83,-648.23C984.42,-629.35 912.15,-594.07 870.43,-540 838.35,-498.41 846.72,-478.57 822.43,-432 817.76,-423.04 812.21,-413.52 807.05,-405.05"/>
<polygon fill="blue" stroke="black" points="1031.59,-651.5 1042.18,-651.79 1034.08,-644.96 1031.59,-651.5"/>
<polygon fill="blue" stroke="black" points="809.9,-403.01 801.66,-396.35 803.95,-406.7 809.9,-403.01"/>
</g>
<!-- nilearn_mass_univariate -->
<g id="node14" class="node">
<title>nilearn_mass_univariate</title><style>.edge>path:hover{stroke-width:8}</style>
<polygon fill="blue" stroke="black" points="742.43,-180 644.43,-180 644.43,-144 742.43,-144 742.43,-180"/>
<text text-anchor="middle" x="693.43" y="-165" font-family="Helvetica,sans-Serif" font-size="10.00" fill="white">nilearn.</text>
<text text-anchor="middle" x="693.43" y="-154" font-family="Helvetica,sans-Serif" font-size="10.00" fill="white">mass_univariate</text>
</g>
<!-- nilearn__utils&#45;&gt;nilearn_mass_univariate -->
<g id="edge10" class="edge">
<title>nilearn__utils&#45;&gt;nilearn_mass_univariate</title><style>.edge>path:hover{stroke-width:8}</style>
<path fill="none" stroke="black" d="M1092.17,-647.68C1105.94,-621.53 1129.43,-570 1129.43,-523 1129.43,-523 1129.43,-523 1129.43,-449 1129.43,-369.1 1109.23,-341 1049.43,-288 1026.53,-267.7 847.34,-210.42 752.26,-180.97"/>
<polygon fill="blue" stroke="black" points="753.08,-177.56 742.49,-177.96 751.01,-184.25 753.08,-177.56"/>
</g>
<!-- nilearn_plotting -->
<g id="node15" class="node">
<title>nilearn_plotting</title><style>.edge>path:hover{stroke-width:8}</style>
<polygon fill="blue" stroke="black" points="834.43,-36 780.43,-36 780.43,0 834.43,0 834.43,-36"/>
<text text-anchor="middle" x="807.43" y="-21" font-family="Helvetica,sans-Serif" font-size="10.00" fill="white">nilearn.</text>
<text text-anchor="middle" x="807.43" y="-10" font-family="Helvetica,sans-Serif" font-size="10.00" fill="white">plotting</text>
</g>
<!-- nilearn__utils&#45;&gt;nilearn_plotting -->
<g id="edge11" class="edge">
<title>nilearn__utils&#45;&gt;nilearn_plotting</title><style>.edge>path:hover{stroke-width:8}</style>
<path fill="none" stroke="black" d="M1133.18,-664.08C1195.05,-661.19 1301.47,-650.46 1383.43,-612 1438.82,-586.01 1488.43,-584.18 1488.43,-523 1488.43,-523 1488.43,-523 1488.43,-161 1488.43,-28.43 987.64,-18.81 844.96,-18.75"/>
<polygon fill="blue" stroke="black" points="1132.75,-660.59 1122.91,-664.5 1133.04,-667.59 1132.75,-660.59"/>
<polygon fill="blue" stroke="black" points="844.54,-15.25 834.55,-18.77 844.55,-22.25 844.54,-15.25"/>
</g>
<!-- nilearn_regions -->
<g id="node16" class="node">
<title>nilearn_regions</title><style>.edge>path:hover{stroke-width:8}</style>
<polygon fill="blue" stroke="black" points="966.43,-324 912.43,-324 912.43,-288 966.43,-288 966.43,-324"/>
<text text-anchor="middle" x="939.43" y="-309" font-family="Helvetica,sans-Serif" font-size="10.00" fill="white">nilearn.</text>
<text text-anchor="middle" x="939.43" y="-298" font-family="Helvetica,sans-Serif" font-size="10.00" fill="white">regions</text>
</g>
<!-- nilearn__utils&#45;&gt;nilearn_regions -->
<g id="edge12" class="edge">
<title>nilearn__utils&#45;&gt;nilearn_regions</title><style>.edge>path:hover{stroke-width:8}</style>
<path fill="none" stroke="black" d="M1048.73,-641.24C1039.04,-632.96 1029.26,-622.97 1022.43,-612 1014.9,-599.9 964.92,-406.52 946.36,-334.1"/>
<polygon fill="blue" stroke="black" points="1046.81,-644.19 1056.78,-647.78 1051.22,-638.76 1046.81,-644.19"/>
<polygon fill="blue" stroke="black" points="949.73,-333.15 943.85,-324.33 942.94,-334.88 949.73,-333.15"/>
</g>
<!-- nilearn_reporting -->
<g id="node17" class="node">
<title>nilearn_reporting</title><style>.edge>path:hover{stroke-width:8}</style>
<polygon fill="blue" stroke="black" points="306.93,-756 245.93,-756 245.93,-720 306.93,-720 306.93,-756"/>
<text text-anchor="middle" x="276.43" y="-741" font-family="Helvetica,sans-Serif" font-size="10.00" fill="white">nilearn.</text>
<text text-anchor="middle" x="276.43" y="-730" font-family="Helvetica,sans-Serif" font-size="10.00" fill="white">reporting</text>
</g>
<!-- nilearn_signal -->
<g id="node18" class="node">
<title>nilearn_signal</title><style>.edge>path:hover{stroke-width:8}</style>
<polygon fill="blue" stroke="black" points="1279.93,-540 1196.93,-540 1196.93,-504 1279.93,-504 1279.93,-540"/>
<text text-anchor="middle" x="1238.43" y="-519.5" font-family="Helvetica,sans-Serif" font-size="10.00" fill="white">nilearn.signal</text>
</g>
<!-- nilearn__utils&#45;&gt;nilearn_signal -->
<g id="edge14" class="edge">
<title>nilearn__utils&#45;&gt;nilearn_signal</title><style>.edge>path:hover{stroke-width:8}</style>
<path fill="none" stroke="black" d="M1122.48,-649.6C1142.1,-640.69 1165.15,-628.04 1182.43,-612 1201.55,-594.26 1216.77,-568.6 1226.49,-549.39"/>
<polygon fill="blue" stroke="black" points="1229.7,-550.79 1230.94,-540.27 1223.4,-547.72 1229.7,-550.79"/>
</g>
<!-- nilearn_surface -->
<g id="node19" class="node">
<title>nilearn_surface</title><style>.edge>path:hover{stroke-width:8}</style>
<polygon fill="blue" stroke="black" points="704.43,-540 650.43,-540 650.43,-504 704.43,-504 704.43,-540"/>
<text text-anchor="middle" x="677.43" y="-525" font-family="Helvetica,sans-Serif" font-size="10.00" fill="white">nilearn.</text>
<text text-anchor="middle" x="677.43" y="-514" font-family="Helvetica,sans-Serif" font-size="10.00" fill="white">surface</text>
</g>
<!-- nilearn__utils&#45;&gt;nilearn_surface -->
<g id="edge15" class="edge">
<title>nilearn__utils&#45;&gt;nilearn_surface</title><style>.edge>path:hover{stroke-width:8}</style>
<path fill="none" stroke="black" d="M1032.21,-658.22C988,-650.93 922.71,-636.88 870.43,-612 846.35,-600.54 845.98,-588.51 822.43,-576 779.24,-553.05 764.16,-557.38 718.43,-540 717.04,-539.47 715.62,-538.92 714.19,-538.36"/>
<polygon fill="blue" stroke="black" points="1031.71,-661.69 1042.14,-659.81 1032.82,-654.78 1031.71,-661.69"/>
<polygon fill="blue" stroke="black" points="715.27,-535.03 704.69,-534.57 712.68,-541.53 715.27,-535.03"/>
</g>
<!-- nilearn__version -->
<g id="node3" class="node">
<title>nilearn__version</title><style>.edge>path:hover{stroke-width:8}</style>
<ellipse fill="#c24747" stroke="black" cx="101.43" cy="-813.21" rx="41.02" ry="21.43"/>
<text text-anchor="middle" x="101.43" y="-816.21" font-family="Helvetica,sans-Serif" font-size="10.00" fill="#ffffff">nilearn.</text>
<text text-anchor="middle" x="101.43" y="-805.21" font-family="Helvetica,sans-Serif" font-size="10.00" fill="#ffffff">_version</text>
</g>
<!-- nilearn__version&#45;&gt;nilearn -->
<g id="edge16" class="edge">
<title>nilearn__version&#45;&gt;nilearn</title><style>.edge>path:hover{stroke-width:8}</style>
<path fill="none" stroke="black" d="M83.26,-793.74C73.48,-783.78 61.33,-771.44 51.06,-760.99"/>
<polygon fill="#c24747" stroke="black" points="53.48,-758.46 43.97,-753.78 48.49,-763.37 53.48,-758.46"/>
</g>
<!-- nilearn__version&#45;&gt;nilearn_reporting -->
<g id="edge17" class="edge">
<title>nilearn__version&#45;&gt;nilearn_reporting</title><style>.edge>path:hover{stroke-width:8}</style>
<path fill="none" stroke="black" d="M132.72,-799.12C161.68,-787.01 204.88,-768.94 236.35,-755.77"/>
<polygon fill="#c24747" stroke="black" points="237.84,-758.94 245.71,-751.85 235.13,-752.48 237.84,-758.94"/>
</g>
<!-- nilearn_datasets&#45;&gt;nilearn_glm -->
<g id="edge20" class="edge">
<title>nilearn_datasets&#45;&gt;nilearn_glm</title><style>.edge>path:hover{stroke-width:8}</style>
<path fill="none" stroke="black" d="M664.83,-582.34C633.2,-570.28 582.24,-548.91 542.43,-523"/>
<path fill="none" stroke="black" d="M542.43,-521C490.83,-487.41 455.07,-514.26 414.43,-468 387.39,-437.22 390.43,-419.97 390.43,-379 390.43,-379 390.43,-379 390.43,-305 390.43,-233.42 423.49,-220.27 466.43,-163"/>
<path fill="none" stroke="black" d="M466.43,-161C486.81,-130.89 586.78,-109.05 647.05,-98.37"/>
<polygon fill="blue" stroke="black" points="647.84,-101.79 657.09,-96.63 646.64,-94.89 647.84,-101.79"/>
</g>
<!-- nilearn_datasets&#45;&gt;nilearn_maskers -->
<g id="edge21" class="edge">
<title>nilearn_datasets&#45;&gt;nilearn_maskers</title><style>.edge>path:hover{stroke-width:8}</style>
<path fill="none" stroke="black" d="M542.43,-521C480.16,-478.36 545.83,-415.99 596.43,-360 629.64,-323.26 652.46,-333.28 694.43,-307"/>
<path fill="none" stroke="black" d="M694.43,-305C705.21,-297.6 707.46,-295.1 718.43,-288 735.26,-277.11 754.34,-265.75 770.58,-256.34"/>
<polygon fill="blue" stroke="black" points="772.36,-259.36 779.28,-251.34 768.87,-253.29 772.36,-259.36"/>
</g>
<!-- nilearn_datasets&#45;&gt;nilearn_masking -->
<g id="edge22" class="edge">
<title>nilearn_datasets&#45;&gt;nilearn_masking</title><style>.edge>path:hover{stroke-width:8}</style>
<path fill="none" stroke="black" d="M723.2,-568.91C731.72,-560.52 740.38,-550.55 746.43,-540 771.17,-496.92 782.51,-439.33 787.3,-405.99"/>
<polygon fill="blue" stroke="black" points="720.71,-566.45 715.82,-575.85 725.51,-571.55 720.71,-566.45"/>
<polygon fill="blue" stroke="black" points="790.77,-406.44 788.63,-396.07 783.83,-405.51 790.77,-406.44"/>
</g>
<!-- nilearn_datasets&#45;&gt;nilearn_plotting -->
<g id="edge23" class="edge">
<title>nilearn_datasets&#45;&gt;nilearn_plotting</title><style>.edge>path:hover{stroke-width:8}</style>
<path fill="none" stroke="black" d="M654.76,-587.15C590.5,-575.67 463.38,-544.29 389.43,-468 306.23,-382.17 242.11,-322.99 295.43,-216 342.86,-120.85 388.71,-113.87 486.43,-72 537.03,-50.32 696.67,-30.93 769.97,-22.91"/>
<polygon fill="blue" stroke="black" points="654.44,-590.65 664.89,-588.89 655.63,-583.75 654.44,-590.65"/>
<polygon fill="blue" stroke="black" points="770.57,-26.37 780.13,-21.81 769.81,-19.41 770.57,-26.37"/>
</g>
<!-- nilearn_datasets&#45;&gt;nilearn_reporting -->
<g id="edge24" class="edge">
<title>nilearn_datasets&#45;&gt;nilearn_reporting</title><style>.edge>path:hover{stroke-width:8}</style>
<path fill="none" stroke="black" d="M723.97,-606.35C747.08,-616.91 775.05,-634.16 773.28,-655.35"/>
<polygon fill="blue" stroke="black" points="769.91,-654.42 770.43,-665 776.62,-656.4 769.91,-654.42"/>
<path fill="none" stroke="black" d="M770.43,-667C749.24,-708.7 412.12,-729.86 307.29,-735.46"/>
</g>
<!-- nilearn_datasets&#45;&gt;nilearn_surface -->
<g id="edge25" class="edge">
<title>nilearn_datasets&#45;&gt;nilearn_surface</title><style>.edge>path:hover{stroke-width:8}</style>
<path fill="none" stroke="black" d="M687.86,-565.95C686.61,-560.79 685.3,-555.38 684.04,-550.22"/>
<polygon fill="blue" stroke="black" points="684.47,-566.81 690.23,-575.7 691.27,-565.15 684.47,-566.81"/>
<polygon fill="blue" stroke="black" points="687.35,-549 681.59,-540.1 680.55,-550.65 687.35,-549"/>
</g>
<!-- nilearn_decomposition&#45;&gt;nilearn_regions -->
<g id="edge28" class="edge">
<title>nilearn_decomposition&#45;&gt;nilearn_regions</title><style>.edge>path:hover{stroke-width:8}</style>
<path fill="none" stroke="black" d="M1121.38,-180.19C1084.18,-205.71 1014.3,-253.65 972.8,-282.11"/>
<polygon fill="blue" stroke="black" points="970.67,-279.33 964.4,-287.87 974.63,-285.1 970.67,-279.33"/>
</g>
<!-- nilearn_externals -->
<g id="node8" class="node">
<title>nilearn_externals</title><style>.edge>path:hover{stroke-width:8}</style>
<ellipse fill="#d92626" stroke="black" cx="276.43" cy="-813.21" rx="43.68" ry="21.43"/>
<text text-anchor="middle" x="276.43" y="-816.21" font-family="Helvetica,sans-Serif" font-size="10.00" fill="#ffffff">nilearn.</text>
<text text-anchor="middle" x="276.43" y="-805.21" font-family="Helvetica,sans-Serif" font-size="10.00" fill="#ffffff">externals</text>
</g>
<!-- nilearn_externals&#45;&gt;nilearn__utils -->
<g id="edge29" class="edge">
<title>nilearn_externals&#45;&gt;nilearn__utils</title><style>.edge>path:hover{stroke-width:8}</style>
<path fill="none" stroke="black" d="M320.39,-812.1C477.84,-811.29 1007.2,-804.91 1063.43,-756 1080.71,-740.97 1084.52,-714.43 1084.56,-694.23"/>
<polygon fill="#d92626" stroke="black" points="1088.06,-693.95 1084.28,-684.06 1081.06,-694.15 1088.06,-693.95"/>
</g>
<!-- nilearn_externals&#45;&gt;nilearn_glm -->
<g id="edge30" class="edge">
<title>nilearn_externals&#45;&gt;nilearn_glm</title><style>.edge>path:hover{stroke-width:8}</style>
<path fill="none" stroke="black" d="M238.9,-802.06C183.52,-784.53 86.43,-742.98 86.43,-667 86.43,-667 86.43,-667 86.43,-449 86.43,-254.45 227.41,-232.96 400.43,-144 480.23,-102.97 586.52,-93.21 646.69,-91.19"/>
<polygon fill="#d92626" stroke="black" points="647.11,-94.67 657.01,-90.9 646.92,-87.68 647.11,-94.67"/>
</g>
<!-- nilearn_externals&#45;&gt;nilearn_reporting -->
<g id="edge31" class="edge">
<title>nilearn_externals&#45;&gt;nilearn_reporting</title><style>.edge>path:hover{stroke-width:8}</style>
<path fill="none" stroke="black" d="M276.43,-791.82C276.43,-783.97 276.43,-774.86 276.43,-766.45"/>
<polygon fill="#d92626" stroke="black" points="279.93,-766.31 276.43,-756.31 272.93,-766.31 279.93,-766.31"/>
</g>
<!-- nilearn_glm&#45;&gt;nilearn_interfaces -->
<g id="edge33" class="edge">
<title>nilearn_glm&#45;&gt;nilearn_interfaces</title><style>.edge>path:hover{stroke-width:8}</style>
<path fill="none" stroke="black" d="M656.61,-66.59C643.46,-58.58 628.65,-49.57 615.49,-41.55"/>
<polygon fill="blue" stroke="black" points="654.94,-69.67 665.3,-71.88 658.58,-63.69 654.94,-69.67"/>
<polygon fill="blue" stroke="black" points="617.04,-38.4 606.67,-36.19 613.4,-44.38 617.04,-38.4"/>
</g>
<!-- nilearn_glm&#45;&gt;nilearn_plotting -->
<g id="edge34" class="edge">
<title>nilearn_glm&#45;&gt;nilearn_plotting</title><style>.edge>path:hover{stroke-width:8}</style>
<path fill="none" stroke="black" d="M721.32,-71.88C736.45,-62.59 755.32,-51 771.53,-41.04"/>
<polygon fill="blue" stroke="black" points="773.54,-43.92 780.23,-35.71 769.87,-37.96 773.54,-43.92"/>
</g>
<!-- nilearn_image&#45;&gt;nilearn_datasets -->
<g id="edge37" class="edge">
<title>nilearn_image&#45;&gt;nilearn_datasets</title><style>.edge>path:hover{stroke-width:8}</style>
<path fill="none" stroke="black" d="M914.38,-468.17C909.94,-481.11 902.46,-498.98 891.38,-513.15"/>
<polygon fill="blue" stroke="black" points="888.44,-511.19 884.43,-521 893.68,-515.83 888.44,-511.19"/>
<path fill="none" stroke="black" d="M884.43,-523C872.63,-534.69 774.69,-567.27 724.24,-583.53"/>
</g>
<!-- nilearn_image&#45;&gt;nilearn_decoding -->
<g id="edge38" class="edge">
<title>nilearn_image&#45;&gt;nilearn_decoding</title><style>.edge>path:hover{stroke-width:8}</style>
<path fill="none" stroke="black" d="M928.87,-431.74C941.38,-408.12 963.3,-364.06 975.43,-324 987.06,-285.61 977.79,-273.07 990.43,-235"/>
</g>
<!-- nilearn_image&#45;&gt;nilearn_decomposition -->
<g id="edge39" class="edge">
<title>nilearn_image&#45;&gt;nilearn_decomposition</title><style>.edge>path:hover{stroke-width:8}</style>
<path fill="none" stroke="black" d="M961.59,-437.53C1046.56,-411.93 1226.81,-343.67 1184.43,-235"/>
<path fill="none" stroke="black" d="M1184.43,-233C1176.99,-218.31 1168.25,-202.14 1161.03,-189.04"/>
<polygon fill="blue" stroke="black" points="1163.99,-187.17 1156.08,-180.12 1157.86,-190.56 1163.99,-187.17"/>
</g>
<!-- nilearn_image&#45;&gt;nilearn_glm -->
<g id="edge40" class="edge">
<title>nilearn_image&#45;&gt;nilearn_glm</title><style>.edge>path:hover{stroke-width:8}</style>
<path fill="none" stroke="black" d="M957.35,-431.92C1054.93,-385.78 1300.27,-254.66 1200.43,-144 1174.32,-115.05 890.2,-112.09 851.43,-108 813.84,-104.04 771.23,-99.45 739.74,-96.04"/>
<polygon fill="blue" stroke="black" points="739.83,-92.53 729.51,-94.93 739.08,-99.49 739.83,-92.53"/>
</g>
<!-- nilearn_image&#45;&gt;nilearn_maskers -->
<g id="edge41" class="edge">
<title>nilearn_image&#45;&gt;nilearn_maskers</title><style>.edge>path:hover{stroke-width:8}</style>
<path fill="none" stroke="black" d="M886.43,-377C859.84,-338.85 835.07,-290.76 820.85,-261.47"/>
<polygon fill="blue" stroke="black" points="823.93,-259.8 816.45,-252.3 817.62,-262.83 823.93,-259.8"/>
</g>
<!-- nilearn_image&#45;&gt;nilearn_masking -->
<g id="edge42" class="edge">
<title>nilearn_image&#45;&gt;nilearn_masking</title><style>.edge>path:hover{stroke-width:8}</style>
<path fill="none" stroke="black" d="M878.86,-426.99C863.02,-418.39 844.92,-408.57 829.25,-400.06"/>
<polygon fill="blue" stroke="black" points="877.42,-430.18 887.88,-431.88 880.76,-424.03 877.42,-430.18"/>
<polygon fill="blue" stroke="black" points="830.79,-396.92 820.33,-395.23 827.45,-403.07 830.79,-396.92"/>
</g>
<!-- nilearn_image&#45;&gt;nilearn_mass_univariate -->
<g id="edge43" class="edge">
<title>nilearn_image&#45;&gt;nilearn_mass_univariate</title><style>.edge>path:hover{stroke-width:8}</style>
<path fill="none" stroke="black" d="M913.21,-431.72C907.46,-416.99 898.07,-395.62 886.43,-379"/>
<path fill="none" stroke="black" d="M886.43,-377C832.2,-299.57 748.1,-390.01 680.43,-324 651.11,-295.39 644.21,-274.1 656.43,-235"/>
</g>
<!-- nilearn_image&#45;&gt;nilearn_plotting -->
<g id="edge44" class="edge">
<title>nilearn_image&#45;&gt;nilearn_plotting</title><style>.edge>path:hover{stroke-width:8}</style>
<path fill="none" stroke="black" d="M961.8,-443.1C1002.37,-436.16 1064.34,-422.11 1112.43,-396 1146.67,-377.41 1388.95,-199.15 1374.43,-163"/>
<path fill="none" stroke="black" d="M1374.43,-161C1330.98,-69.92 1221.13,-170.08 1158.43,-91"/>
</g>
<!-- nilearn_image&#45;&gt;nilearn_regions -->
<g id="edge45" class="edge">
<title>nilearn_image&#45;&gt;nilearn_regions</title><style>.edge>path:hover{stroke-width:8}</style>
<path fill="none" stroke="black" d="M886.43,-377C875.35,-361.1 888.36,-343.72 904.26,-330.25"/>
<polygon fill="blue" stroke="black" points="906.52,-332.92 912.21,-323.98 902.19,-327.43 906.52,-332.92"/>
</g>
<!-- nilearn_image&#45;&gt;nilearn_reporting -->
<g id="edge46" class="edge">
<title>nilearn_image&#45;&gt;nilearn_reporting</title><style>.edge>path:hover{stroke-width:8}</style>
<path fill="none" stroke="black" d="M884.43,-523C842.18,-564.83 774.73,-533.7 770.43,-593"/>
</g>
<!-- nilearn_interfaces&#45;&gt;nilearn_datasets -->
<g id="edge49" class="edge">
<title>nilearn_interfaces&#45;&gt;nilearn_datasets</title><style>.edge>path:hover{stroke-width:8}</style>
<path fill="none" stroke="black" d="M545.8,-18.93C461.56,-19.43 239.63,-25.25 186.43,-72 155.66,-99.04 162.43,-120.03 162.43,-161 162.43,-307 162.43,-307 162.43,-307 162.43,-530.4 530.86,-580.04 654.52,-590.41"/>
<polygon fill="blue" stroke="black" points="654.44,-593.92 664.69,-591.22 655,-586.94 654.44,-593.92"/>
</g>
<!-- nilearn_maskers&#45;&gt;nilearn_decoding -->
<g id="edge52" class="edge">
<title>nilearn_maskers&#45;&gt;nilearn_decoding</title><style>.edge>path:hover{stroke-width:8}</style>
<path fill="none" stroke="black" d="M837.59,-222.37C870.34,-210.43 923.67,-190.99 960.32,-177.62"/>
<polygon fill="blue" stroke="black" points="961.53,-180.91 969.72,-174.2 959.13,-174.33 961.53,-180.91"/>
</g>
<!-- nilearn_maskers&#45;&gt;nilearn_decomposition -->
<g id="edge53" class="edge">
<title>nilearn_maskers&#45;&gt;nilearn_decomposition</title><style>.edge>path:hover{stroke-width:8}</style>
<path fill="none" stroke="black" d="M837.67,-226.84C853.07,-223.6 872.27,-219.57 889.43,-216 959.26,-201.47 1039.8,-184.89 1091.84,-174.2"/>
<polygon fill="blue" stroke="black" points="1092.76,-177.58 1101.85,-172.14 1091.35,-170.73 1092.76,-177.58"/>
</g>
<!-- nilearn_maskers&#45;&gt;nilearn_glm -->
<g id="edge54" class="edge">
<title>nilearn_maskers&#45;&gt;nilearn_glm</title><style>.edge>path:hover{stroke-width:8}</style>
<path fill="none" stroke="black" d="M798.98,-215.79C791.24,-201.65 780.03,-181.07 770.43,-163"/>
<path fill="none" stroke="black" d="M770.43,-161C760.64,-142.56 743.99,-126.5 728.67,-114.43"/>
<polygon fill="blue" stroke="black" points="730.44,-111.38 720.35,-108.15 726.22,-116.97 730.44,-111.38"/>
</g>
<!-- nilearn_maskers&#45;&gt;nilearn_interfaces -->
<g id="edge55" class="edge">
<title>nilearn_maskers&#45;&gt;nilearn_interfaces</title><style>.edge>path:hover{stroke-width:8}</style>
<path fill="none" stroke="black" d="M770.43,-161C750.71,-123.88 768.53,-101.34 738.43,-72 706.78,-41.14 656.76,-28.24 621.08,-22.86"/>
<polygon fill="blue" stroke="black" points="621.34,-19.36 610.96,-21.47 620.39,-26.3 621.34,-19.36"/>
</g>
<!-- nilearn_maskers&#45;&gt;nilearn_mass_univariate -->
<g id="edge56" class="edge">
<title>nilearn_maskers&#45;&gt;nilearn_mass_univariate</title><style>.edge>path:hover{stroke-width:8}</style>
<path fill="none" stroke="black" d="M780.3,-215.88C765.26,-206.72 746.57,-195.34 730.37,-185.48"/>
<polygon fill="blue" stroke="black" points="732.04,-182.4 721.67,-180.19 728.4,-188.38 732.04,-182.4"/>
</g>
<!-- nilearn_maskers&#45;&gt;nilearn_plotting -->
<g id="edge57" class="edge">
<title>nilearn_maskers&#45;&gt;nilearn_plotting</title><style>.edge>path:hover{stroke-width:8}</style>
<path fill="none" stroke="black" d="M808.31,-205.71C808.11,-164.65 807.75,-87.42 807.56,-46.33"/>
<polygon fill="blue" stroke="black" points="804.81,-205.87 808.35,-215.85 811.81,-205.83 804.81,-205.87"/>
<polygon fill="blue" stroke="black" points="811.06,-46.22 807.51,-36.23 804.06,-46.25 811.06,-46.22"/>
</g>
<!-- nilearn_masking&#45;&gt;nilearn_decoding -->
<g id="edge62" class="edge">
<title>nilearn_masking&#45;&gt;nilearn_decoding</title><style>.edge>path:hover{stroke-width:8}</style>
<path fill="none" stroke="black" d="M810.69,-359.83C832.88,-341.32 869.8,-311.37 903.43,-288 940.62,-262.17 976.47,-278.07 990.43,-235"/>
<path fill="none" stroke="black" d="M990.43,-233C994.97,-219.35 997.45,-203.53 998.8,-190.38"/>
<polygon fill="blue" stroke="black" points="1002.32,-190.34 999.7,-180.08 995.34,-189.74 1002.32,-190.34"/>
</g>
<!-- nilearn_masking&#45;&gt;nilearn_maskers -->
<g id="edge64" class="edge">
<title>nilearn_masking&#45;&gt;nilearn_maskers</title><style>.edge>path:hover{stroke-width:8}</style>
<path fill="none" stroke="black" d="M792.49,-359.75C794.78,-345.03 799.43,-323.67 808.43,-307"/>
<path fill="none" stroke="black" d="M808.43,-305C815.36,-292.18 815.8,-276 814.3,-262.43"/>
<polygon fill="blue" stroke="black" points="817.72,-261.6 812.78,-252.22 810.8,-262.63 817.72,-261.6"/>
</g>
<!-- nilearn_masking&#45;&gt;nilearn_mass_univariate -->
<g id="edge65" class="edge">
<title>nilearn_masking&#45;&gt;nilearn_mass_univariate</title><style>.edge>path:hover{stroke-width:8}</style>
<path fill="none" stroke="black" d="M760.9,-375.95C725.98,-372.92 669.22,-362.05 642.43,-324 619.38,-291.26 637.94,-270.51 656.43,-235"/>
<path fill="none" stroke="black" d="M656.43,-233C661.25,-217.59 669.44,-201.58 676.89,-188.77"/>
<polygon fill="blue" stroke="black" points="679.97,-190.43 682.13,-180.06 673.97,-186.82 679.97,-190.43"/>
</g>
<!-- nilearn_masking&#45;&gt;nilearn_plotting -->
<g id="edge66" class="edge">
<title>nilearn_masking&#45;&gt;nilearn_plotting</title><style>.edge>path:hover{stroke-width:8}</style>
<path fill="none" stroke="black" d="M808.43,-305C831.82,-261.71 918.18,-169.21 960.43,-144 1038.67,-97.33 1215.77,-161.79 1158.43,-91"/>
<path fill="none" stroke="black" d="M1158.43,-89C1119.79,-40.25 926.88,-24.94 844.65,-20.58"/>
<polygon fill="blue" stroke="black" points="844.67,-17.08 834.5,-20.07 844.31,-24.07 844.67,-17.08"/>
</g>
<!-- nilearn_masking&#45;&gt;nilearn_regions -->
<g id="edge67" class="edge">
<title>nilearn_masking&#45;&gt;nilearn_regions</title><style>.edge>path:hover{stroke-width:8}</style>
<path fill="none" stroke="black" d="M820.23,-363C844.02,-351.82 877.48,-336.11 902.89,-324.17"/>
<polygon fill="blue" stroke="black" points="904.64,-327.21 912.2,-319.79 901.66,-320.88 904.64,-327.21"/>
</g>
<!-- nilearn_mass_univariate&#45;&gt;nilearn_glm -->
<g id="edge68" class="edge">
<title>nilearn_mass_univariate&#45;&gt;nilearn_glm</title><style>.edge>path:hover{stroke-width:8}</style>
<path fill="none" stroke="black" d="M693.43,-143.7C693.43,-135.98 693.43,-126.71 693.43,-118.11"/>
<polygon fill="blue" stroke="black" points="696.93,-118.1 693.43,-108.1 689.93,-118.1 696.93,-118.1"/>
</g>
<!-- nilearn_plotting&#45;&gt;nilearn_reporting -->
<g id="edge72" class="edge">
<title>nilearn_plotting&#45;&gt;nilearn_reporting</title><style>.edge>path:hover{stroke-width:8}</style>
<path fill="none" stroke="black" d="M780.42,-21.46C701.29,-28.82 471.03,-51.46 398.43,-72 305.59,-98.26 200.43,-64.52 200.43,-161 200.43,-595 200.43,-595 200.43,-595 200.43,-640.36 230.95,-685.25 253.31,-712.05"/>
<polygon fill="blue" stroke="black" points="250.77,-714.47 259.94,-719.77 256.08,-709.91 250.77,-714.47"/>
</g>
<!-- nilearn_regions&#45;&gt;nilearn_decoding -->
<g id="edge74" class="edge">
<title>nilearn_regions&#45;&gt;nilearn_decoding</title><style>.edge>path:hover{stroke-width:8}</style>
<path fill="none" stroke="black" d="M956.85,-287.8C968.88,-274.63 983.85,-255.31 990.43,-235"/>
</g>
<!-- nilearn_regions&#45;&gt;nilearn_maskers -->
<g id="edge75" class="edge">
<title>nilearn_regions&#45;&gt;nilearn_maskers</title><style>.edge>path:hover{stroke-width:8}</style>
<path fill="none" stroke="black" d="M903.21,-285.64C885.67,-276.27 864.61,-265.02 846.8,-255.5"/>
<polygon fill="blue" stroke="black" points="901.82,-288.87 912.29,-290.5 905.12,-282.7 901.82,-288.87"/>
<polygon fill="blue" stroke="black" points="848.29,-252.33 837.82,-250.7 844.99,-258.5 848.29,-252.33"/>
</g>
<!-- nilearn_reporting&#45;&gt;nilearn__utils -->
<g id="edge76" class="edge">
<title>nilearn_reporting&#45;&gt;nilearn__utils</title><style>.edge>path:hover{stroke-width:8}</style>
<path fill="none" stroke="black" d="M317.08,-734.24C420.54,-727.12 702.23,-707.03 936.43,-684 968.32,-680.86 1004.06,-676.71 1032.19,-673.3"/>
<polygon fill="blue" stroke="black" points="316.8,-730.76 307.06,-734.93 317.28,-737.74 316.8,-730.76"/>
<polygon fill="blue" stroke="black" points="1032.69,-676.76 1042.19,-672.08 1031.84,-669.82 1032.69,-676.76"/>
</g>
<!-- nilearn_reporting&#45;&gt;nilearn_glm -->
<g id="edge77" class="edge">
<title>nilearn_reporting&#45;&gt;nilearn_glm</title><style>.edge>path:hover{stroke-width:8}</style>
<path fill="none" stroke="black" d="M276.43,-709.92C276.43,-681.35 276.43,-635 276.43,-595 276.43,-595 276.43,-595 276.43,-521 276.43,-336.08 296.07,-242.71 452.43,-144 512.42,-106.13 595.64,-95.08 646.94,-91.99"/>
<polygon fill="blue" stroke="black" points="272.93,-709.95 276.43,-719.95 279.93,-709.95 272.93,-709.95"/>
<polygon fill="blue" stroke="black" points="647.26,-95.48 657.06,-91.46 646.9,-88.49 647.26,-95.48"/>
</g>
<!-- nilearn_reporting&#45;&gt;nilearn_interfaces -->
<g id="edge78" class="edge">
<title>nilearn_reporting&#45;&gt;nilearn_interfaces</title><style>.edge>path:hover{stroke-width:8}</style>
<path fill="none" stroke="black" d="M245.67,-724.74C201.26,-704.77 124.43,-660.73 124.43,-595 124.43,-595 124.43,-595 124.43,-161 124.43,-118.33 126.63,-98.04 160.43,-72 218.46,-27.31 441.46,-20.11 535.84,-19.09"/>
<polygon fill="blue" stroke="black" points="535.93,-22.59 545.9,-19 535.87,-15.59 535.93,-22.59"/>
</g>
<!-- nilearn_reporting&#45;&gt;nilearn_maskers -->
<g id="edge79" class="edge">
<title>nilearn_reporting&#45;&gt;nilearn_maskers</title><style>.edge>path:hover{stroke-width:8}</style>
<path fill="none" stroke="black" d="M286,-710.27C310.04,-644.22 373.92,-475.5 414.43,-432 516.18,-322.73 691.89,-265.55 769.57,-244.56"/>
<polygon fill="blue" stroke="black" points="282.61,-709.36 282.5,-719.96 289.19,-711.74 282.61,-709.36"/>
<polygon fill="blue" stroke="black" points="770.66,-247.89 779.43,-241.95 768.87,-241.13 770.66,-247.89"/>
</g>
<!-- nilearn_signal&#45;&gt;nilearn_connectome -->
<g id="edge80" class="edge">
<title>nilearn_signal&#45;&gt;nilearn_connectome</title><style>.edge>path:hover{stroke-width:8}</style>
<path fill="none" stroke="black" d="M1255.24,-503.7C1263.56,-495.14 1273.74,-484.66 1282.82,-475.3"/>
<polygon fill="blue" stroke="black" points="1285.36,-477.72 1289.82,-468.1 1280.34,-472.84 1285.36,-477.72"/>
</g>
<!-- nilearn_signal&#45;&gt;nilearn_decomposition -->
<g id="edge81" class="edge">
<title>nilearn_signal&#45;&gt;nilearn_decomposition</title><style>.edge>path:hover{stroke-width:8}</style>
<path fill="none" stroke="black" d="M1238.89,-503.81C1240.16,-484.73 1244.59,-453.77 1259.43,-432 1282.63,-397.98 1321.66,-417.81 1335.43,-379"/>
<path fill="none" stroke="black" d="M1335.43,-377C1349.42,-333.11 1205.26,-276.09 1184.43,-235"/>
</g>
<!-- nilearn_signal&#45;&gt;nilearn_image -->
<g id="edge82" class="edge">
<title>nilearn_signal&#45;&gt;nilearn_image</title><style>.edge>path:hover{stroke-width:8}</style>
<path fill="none" stroke="black" d="M1196.73,-511.85C1138.98,-499.18 1034.67,-476.29 971.76,-462.48"/>
<polygon fill="blue" stroke="black" points="972.17,-458.99 961.65,-460.26 970.67,-465.83 972.17,-458.99"/>
</g>
<!-- nilearn_signal&#45;&gt;nilearn_maskers -->
<g id="edge83" class="edge">
<title>nilearn_signal&#45;&gt;nilearn_maskers</title><style>.edge>path:hover{stroke-width:8}</style>
<path fill="none" stroke="black" d="M1226.8,-503.7C1196.47,-460.02 1110.2,-344.74 1008.43,-288 945.91,-253.14 919.8,-273.22 851.43,-252 850.18,-251.61 848.92,-251.2 847.64,-250.78"/>
<polygon fill="blue" stroke="black" points="848.43,-247.35 837.83,-247.3 846.09,-253.94 848.43,-247.35"/>
</g>
<!-- nilearn_signal&#45;&gt;nilearn_plotting -->
<g id="edge84" class="edge">
<title>nilearn_signal&#45;&gt;nilearn_plotting</title><style>.edge>path:hover{stroke-width:8}</style>
<path fill="none" stroke="black" d="M1335.43,-377C1369.06,-286.36 1416.06,-250.26 1374.43,-163"/>
</g>
<!-- nilearn_surface&#45;&gt;nilearn_decoding -->
<g id="edge87" class="edge">
<title>nilearn_surface&#45;&gt;nilearn_decoding</title><style>.edge>path:hover{stroke-width:8}</style>
<path fill="none" stroke="black" d="M580.43,-449C509.21,-335.94 650.15,-274.19 770.43,-216 832.33,-186.05 911.91,-172.59 959.39,-166.87"/>
<polygon fill="blue" stroke="black" points="960.05,-170.32 969.59,-165.71 959.26,-163.37 960.05,-170.32"/>
</g>
<!-- nilearn_surface&#45;&gt;nilearn_decomposition -->
<g id="edge88" class="edge">
<title>nilearn_surface&#45;&gt;nilearn_decomposition</title><style>.edge>path:hover{stroke-width:8}</style>
<path fill="none" stroke="black" d="M678.68,-503.77C680.41,-488.87 684.55,-467.24 694.43,-451"/>
<path fill="none" stroke="black" d="M694.43,-449C738.25,-377.06 728.83,-340.84 794.43,-288 883.67,-216.12 1017.4,-183.92 1091.71,-170.86"/>
<polygon fill="blue" stroke="black" points="1092.51,-174.27 1101.78,-169.14 1091.34,-167.37 1092.51,-174.27"/>
</g>
<!-- nilearn_surface&#45;&gt;nilearn_glm -->
<g id="edge89" class="edge">
<title>nilearn_surface&#45;&gt;nilearn_glm</title><style>.edge>path:hover{stroke-width:8}</style>
<path fill="none" stroke="black" d="M650.33,-508.18C628.24,-496.36 597.95,-476.76 580.43,-451"/>
<path fill="none" stroke="black" d="M580.43,-449C525.26,-367.88 421.27,-224.71 466.43,-163"/>
</g>
<!-- nilearn_surface&#45;&gt;nilearn_image -->
<g id="edge90" class="edge">
<title>nilearn_surface&#45;&gt;nilearn_image</title><style>.edge>path:hover{stroke-width:8}</style>
<path fill="none" stroke="black" d="M714.14,-505.5C715.58,-504.98 717.02,-504.48 718.43,-504 768.34,-487.16 826.68,-472.29 867.62,-462.62"/>
<polygon fill="blue" stroke="black" points="712.68,-502.31 704.58,-509.14 715.18,-508.85 712.68,-502.31"/>
<polygon fill="blue" stroke="black" points="868.43,-466.03 877.37,-460.34 866.84,-459.21 868.43,-466.03"/>
</g>
<!-- nilearn_surface&#45;&gt;nilearn_interfaces -->
<g id="edge91" class="edge">
<title>nilearn_surface&#45;&gt;nilearn_interfaces</title><style>.edge>path:hover{stroke-width:8}</style>
<path fill="none" stroke="black" d="M650.06,-518.89C601.57,-514 499.08,-498.44 428.43,-451"/>
<path fill="none" stroke="black" d="M428.43,-449C354.98,-399.68 244.03,-140.17 300.43,-72 329.78,-36.53 465.11,-24.59 535.55,-20.74"/>
<polygon fill="blue" stroke="black" points="536.05,-24.22 545.86,-20.21 535.69,-17.23 536.05,-24.22"/>
</g>
<!-- nilearn_surface&#45;&gt;nilearn_maskers -->
<g id="edge92" class="edge">
<title>nilearn_surface&#45;&gt;nilearn_maskers</title><style>.edge>path:hover{stroke-width:8}</style>
<path fill="none" stroke="black" d="M580.43,-449C562.25,-412.85 661.17,-330.05 694.43,-307"/>
</g>
<!-- nilearn_surface&#45;&gt;nilearn_masking -->
<g id="edge93" class="edge">
<title>nilearn_surface&#45;&gt;nilearn_masking</title><style>.edge>path:hover{stroke-width:8}</style>
<path fill="none" stroke="black" d="M694.43,-449C707.94,-426.72 731.49,-409.39 751.88,-397.54"/>
<polygon fill="blue" stroke="black" points="753.65,-400.56 760.69,-392.64 750.24,-394.45 753.65,-400.56"/>
</g>
<!-- nilearn_surface&#45;&gt;nilearn_plotting -->
<g id="edge94" class="edge">
<title>nilearn_surface&#45;&gt;nilearn_plotting</title><style>.edge>path:hover{stroke-width:8}</style>
<path fill="none" stroke="black" d="M428.43,-449C403.21,-426.21 431.9,-171.09 452.43,-144 529.56,-42.26 695.76,-23.01 770.13,-19.59"/>
<polygon fill="blue" stroke="black" points="770.56,-23.08 780.41,-19.2 770.29,-16.08 770.56,-23.08"/>
</g>
<!-- nilearn_surface&#45;&gt;nilearn_regions -->
<g id="edge95" class="edge">
<title>nilearn_surface&#45;&gt;nilearn_regions</title><style>.edge>path:hover{stroke-width:8}</style>
<path fill="none" stroke="black" d="M694.43,-449C727.64,-394.24 773.21,-428.44 828.43,-396 850.22,-383.2 852.75,-375.84 872.43,-360 884.52,-350.27 897.92,-339.65 909.54,-330.48"/>
<polygon fill="blue" stroke="black" points="911.95,-333.03 917.64,-324.1 907.62,-327.54 911.95,-333.03"/>
</g>
<!-- nilearn_surface&#45;&gt;nilearn_reporting -->
<g id="edge96" class="edge">
<title>nilearn_surface&#45;&gt;nilearn_reporting</title><style>.edge>path:hover{stroke-width:8}</style>
<path fill="none" stroke="black" d="M704.54,-536.81C727.41,-549.23 757.91,-567.86 767.47,-583.36"/>
<polygon fill="blue" stroke="black" points="764.15,-584.47 770.43,-593 770.84,-582.41 764.15,-584.47"/>
<path fill="none" stroke="black" d="M770.43,-595C768.18,-626.03 784.53,-637.27 770.43,-665"/>
</g>
<!-- nilearn_typing -->
<g id="node20" class="node">
<title>nilearn_typing</title><style>.edge>path:hover{stroke-width:8}</style>
<ellipse fill="#f31616" stroke="black" cx="1005.43" cy="-738" rx="49.4" ry="18"/>
<text text-anchor="middle" x="1005.43" y="-735.5" font-family="Helvetica,sans-Serif" font-size="10.00" fill="#ffffff">nilearn.typing</text>
</g>
<!-- nilearn_typing&#45;&gt;nilearn__utils -->
<g id="edge97" class="edge">
<title>nilearn_typing&#45;&gt;nilearn__utils</title><style>.edge>path:hover{stroke-width:8}</style>
<path fill="none" stroke="black" d="M1022.91,-721.12C1032.69,-712.22 1045.09,-700.95 1056.03,-691"/>
<polygon fill="#f31616" stroke="black" points="1058.64,-693.36 1063.68,-684.04 1053.93,-688.18 1058.64,-693.36"/>
</g>
<!-- nilearn_typing&#45;&gt;nilearn_glm -->
<g id="edge98" class="edge">
<title>nilearn_typing&#45;&gt;nilearn_glm</title><style>.edge>path:hover{stroke-width:8}</style>
<path fill="none" stroke="black" d="M985.24,-721.41C967.95,-707.73 942.72,-686.97 922.43,-667"/>
<path fill="none" stroke="black" d="M922.43,-665C886.58,-629.72 861.4,-643.81 822.43,-612 814.85,-605.81 815.21,-602.06 808.43,-595"/>
<path fill="none" stroke="black" d="M808.43,-593C776.62,-559.88 763.06,-557.21 732.43,-523"/>
<path fill="none" stroke="black" d="M732.43,-521C710.42,-496.41 701.54,-493.37 680.43,-468 653.96,-436.17 443.23,-197.29 466.43,-163"/>
</g>
<!-- nilearn_typing&#45;&gt;nilearn_image -->
<g id="edge99" class="edge">
<title>nilearn_typing&#45;&gt;nilearn_image</title><style>.edge>path:hover{stroke-width:8}</style>
<path fill="none" stroke="black" d="M922.43,-665C897.56,-638.99 908.61,-529.8 915.46,-478.22"/>
<polygon fill="#f31616" stroke="black" points="918.96,-478.52 916.85,-468.13 912.02,-477.56 918.96,-478.52"/>
</g>
<!-- nilearn_typing&#45;&gt;nilearn_maskers -->
<g id="edge100" class="edge">
<title>nilearn_typing&#45;&gt;nilearn_maskers</title><style>.edge>path:hover{stroke-width:8}</style>
<path fill="none" stroke="black" d="M732.43,-521C686.14,-465.79 732.03,-429.39 751.43,-360 761.41,-324.31 780.28,-285.9 793.56,-261.21"/>
<polygon fill="#f31616" stroke="black" points="796.79,-262.6 798.52,-252.15 790.65,-259.24 796.79,-262.6"/>
</g>
<!-- nilearn_typing&#45;&gt;nilearn_masking -->
<g id="edge101" class="edge">
<title>nilearn_typing&#45;&gt;nilearn_masking</title><style>.edge>path:hover{stroke-width:8}</style>
<path fill="none" stroke="black" d="M808.43,-593C805.3,-589.61 796.23,-463.16 792.29,-406.26"/>
<polygon fill="#f31616" stroke="black" points="795.77,-405.91 791.6,-396.18 788.79,-406.39 795.77,-405.91"/>
</g>
<!-- nilearn_typing&#45;&gt;nilearn_plotting -->
<g id="edge102" class="edge">
<title>nilearn_typing&#45;&gt;nilearn_plotting</title><style>.edge>path:hover{stroke-width:8}</style>
<path fill="none" stroke="black" d="M1053.98,-734.15C1183.32,-725.23 1526.43,-692.38 1526.43,-595 1526.43,-595 1526.43,-595 1526.43,-161 1526.43,-104.11 1486.23,-95.54 1434.43,-72 1328.24,-23.74 962.9,-19.11 844.67,-18.91"/>
<polygon fill="#f31616" stroke="black" points="844.66,-15.41 834.65,-18.9 844.65,-22.41 844.66,-15.41"/>
</g>
</g>
</svg>
