<?xml version="1.0" encoding="UTF-8" standalone="no"?>
<!-- Created with Inkscape (http://www.inkscape.org/) -->

<svg
   width="42.399479mm"
   height="28.989353mm"
   viewBox="0 0 42.399479 28.989353"
   version="1.1"
   id="svg5"
   xml:space="preserve"
   sodipodi:docname="brain_schematics_front.svg"
   inkscape:version="1.2.2 (b0a8486541, 2022-12-01)"
   xmlns:inkscape="http://www.inkscape.org/namespaces/inkscape"
   xmlns:sodipodi="http://sodipodi.sourceforge.net/DTD/sodipodi-0.dtd"
   xmlns="http://www.w3.org/2000/svg"
   xmlns:svg="http://www.w3.org/2000/svg"><sodipodi:namedview
     id="namedview7"
     pagecolor="#ffffff"
     bordercolor="#000000"
     borderopacity="0.25"
     inkscape:showpageshadow="2"
     inkscape:pageopacity="0.0"
     inkscape:pagecheckerboard="0"
     inkscape:deskcolor="#d1d1d1"
     inkscape:document-units="mm"
     showgrid="false"
     inkscape:zoom="1.6819304"
     inkscape:cx="199.47318"
     inkscape:cy="72.238423"
     inkscape:window-width="2560"
     inkscape:window-height="1489"
     inkscape:window-x="0"
     inkscape:window-y="0"
     inkscape:window-maximized="1"
     inkscape:current-layer="layer1" /><defs
     id="defs2" /><g
     inkscape:label="Layer 1"
     inkscape:groupmode="layer"
     id="layer1"
     transform="translate(-19.25906,-39.895963)"><path
       style="fill:#000000;stroke-width:0.123011"
       d="m 56.714751,129.61534 -2.759498,-6.64633"
       id="path242" /><path
       style="fill:none;stroke-width:0.264583"
       d="m 134.12033,162.01815 c 0,0 -8.62088,5.17255 -22.36527,7.17478 -18.103348,2.63723 -37.221945,0.80252 -54.81093,-2.81743 -5.42546,-1.1166 -5.433658,-11.79775 -2.413715,-16.44128 2.211441,-3.40036 8.660061,-0.60629 11.722004,-3.26663 0.659246,-0.57278 1.21119,-1.5427 1.048933,-2.40081 -0.488548,-2.58372 -4.677783,-3.10645 -5.579565,-5.57649 -0.627131,-1.71775 -0.07892,-3.72121 0.468856,-5.46589 0.373642,-1.19006 1.526357,-2.04259 1.868663,-3.24204 0.904877,-3.17072 -0.237677,-6.63801 0.327523,-9.88652 0.458473,-2.63509 1.043217,-5.3686 2.458572,-7.63811 0.798447,-1.28031 1.93601,-2.4162 3.259253,-3.14127 1.685499,-0.92357 3.730402,-0.92888 5.606602,-1.34573 3.404848,-0.75648 6.800564,-1.58999 10.251529,-2.09603 2.450477,-0.35933 4.923659,-0.67916 7.400298,-0.66426 1.588006,0.01 3.405525,-0.37853 4.739558,0.48299 1.386387,0.89533 1.865882,2.75266 2.483769,4.28299 0.75434,1.86828 0.72813,3.98668 1.44835,5.86838 0.34828,0.90995 0.42077,2.37566 1.37338,2.58024 0.76473,0.16423 1.07555,-1.38077 1.85576,-1.43606 2.10203,-0.14896 3.92714,1.71768 5.49538,3.12529 0.75766,0.68005 0.7734,2.38075 1.78694,2.47701 1.26058,0.11973 2.90696,-1.34926 2.76274,-2.60728 -0.28739,-2.50681 -4.53881,-2.27552 -6.53817,-3.81475 -0.83022,-0.63915 -1.86547,-1.23566 -2.22568,-2.21954 -0.58645,-1.60184 -0.60395,-3.74521 0.43383,-5.09903 1.47294,-1.92152 4.45256,-2.01066 6.82882,-2.47455 4.89229,-0.95507 9.95872,-0.52297 14.94316,-0.56718 3.36693,-0.0299 6.74871,-0.13029 10.09914,0.20401 6.46823,0.64539 12.84221,2.06857 19.1905,3.46634 6.30526,1.38829 12.57524,2.97492 18.74378,4.88089 4.20217,1.29839 8.8416,1.8987 12.41883,4.45751 1.38374,0.9898 2.27202,2.55283 3.18367,3.98926 1.12197,1.76782 1.63797,3.87694 2.77442,5.63549 0.42163,0.65243 0.76241,1.50817 1.48338,1.79738 0.95717,0.38395 2.1387,0.074 3.07245,-0.36378 2.06598,-0.96872 3.14318,-3.33908 4.9663,-4.71129 2.29084,-1.72425 4.63686,-3.65195 7.41566,-4.35857 3.65625,-0.92974 7.61015,-0.35236 11.31153,0.37729 1.99027,0.39234 4.24591,0.71057 5.7043,2.12061 1.13008,1.09261 1.63107,2.79854 1.79124,4.36226 0.12856,1.25512 0.11396,2.75448 -0.69806,3.72012 -2.44126,2.9031 -7.46153,1.94455 -10.65832,3.98619 -3.97212,2.53681 -6.12341,7.34571 -10.0635,9.93199 -3.31456,2.17569 -7.44125,2.76526 -11.03316,4.44399 -2.58131,1.20641 -4.84203,3.10648 -7.5361,4.03413 -9.03123,3.10971 -22.79855,13.15101 -34.53615,10.50286 -3.32477,-0.75011 -7.55761,-6.88721 -7.55761,-6.88721"
       id="path344"
       sodipodi:nodetypes="csssssssssssssssssssssssssssssssssssssssssssssac" /><path
       style="fill:none;stroke:#000000;stroke-width:1;stroke-dasharray:none;stroke-opacity:1"
       d="m 58.224964,91.524777 c -0.989894,-0.43035 -1.56235,-1.54996 -2.030271,-2.522655 -0.575829,-1.197015 -0.87957,-2.56145 -0.866075,-3.889695 0.01253,-1.23409 0.384775,-2.46552 0.877933,-3.59686 0.263835,-0.605255 0.610991,-1.19951 1.090057,-1.65387 0.531175,-0.50378 1.219118,-0.828955 1.895136,-1.109915 1.17577,-0.488655 2.427664,-0.836375 3.693423,-0.974495 0.549437,-0.05996 1.128611,-0.09571 1.656726,0.06728 0.412363,0.12727 0.668383,0.72437 1.0982,0.68566 0.384593,-0.03465 0.496454,-0.641525 0.857218,-0.779225 0.694124,-0.264945 1.489379,-0.05327 2.228824,0.019 1.110024,0.108485 2.230313,0.26604 3.288027,0.619815 0.668082,0.22346 1.332855,0.51145 1.894423,0.936785 0.621847,0.47099 1.191857,1.054265 1.566875,1.73829 0.367991,0.671205 0.458886,1.463395 0.61124,2.21354 0.191572,0.94324 0.400138,1.900385 0.378112,2.86263 -0.01987,0.867905 -0.08963,1.77794 -0.458821,2.56366 -0.557487,1.186465 -1.327009,2.50186 -2.537802,3.004335 -1.736664,0.7207 -4.086844,0.20002 -5.614986,-0.55267 -0.593263,-0.292215 -0.09899,0.519425 -2.098178,0.542995 -1.823032,0.0215 -1.297391,-1.009855 -1.867579,-0.674845 -1.507274,0.8856 -3.928894,1.253915 -5.662482,0.500245 z"
       id="path1978"
       sodipodi:nodetypes="ssssssssssssssssssssss" /></g></svg>
