<?xml version="1.0" encoding="UTF-8" standalone="no"?>
<!-- Created with Inkscape (http://www.inkscape.org/) -->

<svg
   width="35.266136mm"
   height="55.413448mm"
   viewBox="0 0 35.266136 55.413448"
   version="1.1"
   id="svg5"
   xml:space="preserve"
   sodipodi:docname="brain_schematics_top.svg"
   inkscape:version="1.2.2 (b0a8486541, 2022-12-01)"
   xmlns:inkscape="http://www.inkscape.org/namespaces/inkscape"
   xmlns:sodipodi="http://sodipodi.sourceforge.net/DTD/sodipodi-0.dtd"
   xmlns="http://www.w3.org/2000/svg"
   xmlns:svg="http://www.w3.org/2000/svg"><sodipodi:namedview
     id="namedview7"
     pagecolor="#ffffff"
     bordercolor="#000000"
     borderopacity="0.25"
     inkscape:showpageshadow="2"
     inkscape:pageopacity="0.0"
     inkscape:pagecheckerboard="0"
     inkscape:deskcolor="#d1d1d1"
     inkscape:document-units="mm"
     showgrid="false"
     inkscape:zoom="1.1893044"
     inkscape:cx="45.825106"
     inkscape:cy="99.638074"
     inkscape:window-width="2560"
     inkscape:window-height="1489"
     inkscape:window-x="0"
     inkscape:window-y="0"
     inkscape:window-maximized="1"
     inkscape:current-layer="layer1" /><defs
     id="defs2" /><g
     inkscape:label="Layer 1"
     inkscape:groupmode="layer"
     id="layer1"
     transform="translate(-51.4429,-62.31497)"><path
       style="fill:#000000;stroke-width:0.264583"
       d="M 59.890609,165.42242 53.955253,151.12694"
       id="path242" /><path
       style="fill:none;stroke-width:0.264583"
       d="m 134.12033,162.01815 c 0,0 -8.62088,5.17255 -22.36527,7.17478 -18.103348,2.63723 -37.221945,0.80252 -54.81093,-2.81743 -5.42546,-1.1166 -5.433658,-11.79775 -2.413715,-16.44128 2.211441,-3.40036 8.660061,-0.60629 11.722004,-3.26663 0.659246,-0.57278 1.21119,-1.5427 1.048933,-2.40081 -0.488548,-2.58372 -4.677783,-3.10645 -5.579565,-5.57649 -0.627131,-1.71775 -0.07892,-3.72121 0.468856,-5.46589 0.373642,-1.19006 1.526357,-2.04259 1.868663,-3.24204 0.904877,-3.17072 -0.237677,-6.63801 0.327523,-9.88652 0.458473,-2.63509 1.043217,-5.3686 2.458572,-7.63811 0.798447,-1.28031 1.93601,-2.4162 3.259253,-3.14127 1.685499,-0.92357 3.730402,-0.92888 5.606602,-1.34573 3.404848,-0.75648 6.800564,-1.58999 10.251529,-2.09603 2.450477,-0.35933 4.923659,-0.67916 7.400298,-0.66426 1.588006,0.01 3.405525,-0.37853 4.739558,0.48299 1.386387,0.89533 1.865882,2.75266 2.483769,4.28299 0.75434,1.86828 0.72813,3.98668 1.44835,5.86838 0.34828,0.90995 0.42077,2.37566 1.37338,2.58024 0.76473,0.16423 1.07555,-1.38077 1.85576,-1.43606 2.10203,-0.14896 3.92714,1.71768 5.49538,3.12529 0.75766,0.68005 0.7734,2.38075 1.78694,2.47701 1.26058,0.11973 2.90696,-1.34926 2.76274,-2.60728 -0.28739,-2.50681 -4.53881,-2.27552 -6.53817,-3.81475 -0.83022,-0.63915 -1.86547,-1.23566 -2.22568,-2.21954 -0.58645,-1.60184 -0.60395,-3.74521 0.43383,-5.09903 1.47294,-1.92152 4.45256,-2.01066 6.82882,-2.47455 4.89229,-0.95507 9.95872,-0.52297 14.94316,-0.56718 3.36693,-0.0299 6.74871,-0.13029 10.09914,0.20401 6.46823,0.64539 12.84221,2.06857 19.1905,3.46634 6.30526,1.38829 12.57524,2.97492 18.74378,4.88089 4.20217,1.29839 8.8416,1.8987 12.41883,4.45751 1.38374,0.9898 2.27202,2.55283 3.18367,3.98926 1.12197,1.76782 1.63797,3.87694 2.77442,5.63549 0.42163,0.65243 0.76241,1.50817 1.48338,1.79738 0.95717,0.38395 2.1387,0.074 3.07245,-0.36378 2.06598,-0.96872 3.14318,-3.33908 4.9663,-4.71129 2.29084,-1.72425 4.63686,-3.65195 7.41566,-4.35857 3.65625,-0.92974 7.61015,-0.35236 11.31153,0.37729 1.99027,0.39234 4.24591,0.71057 5.7043,2.12061 1.13008,1.09261 1.63107,2.79854 1.79124,4.36226 0.12856,1.25512 0.11396,2.75448 -0.69806,3.72012 -2.44126,2.9031 -7.46153,1.94455 -10.65832,3.98619 -3.97212,2.53681 -6.12341,7.34571 -10.0635,9.93199 -3.31456,2.17569 -7.44125,2.76526 -11.03316,4.44399 -2.58131,1.20641 -4.84203,3.10648 -7.5361,4.03413 -9.03123,3.10971 -22.79855,13.15101 -34.53615,10.50286 -3.32477,-0.75011 -7.55761,-6.88721 -7.55761,-6.88721"
       id="path344"
       sodipodi:nodetypes="csssssssssssssssssssssssssssssssssssssssssssssac" /><path
       style="fill:none;stroke:#000000;stroke-width:1;stroke-dasharray:none;stroke-opacity:1"
       d="m 95.043492,117.19303 c -0.681591,-0.71744 -1.105685,-1.65677 -1.484387,-2.57103 -0.330197,-0.79717 -0.33977,-1.70317 -0.669967,-2.50033 -0.328777,-0.79373 -0.959923,-1.43836 -1.288698,-2.23209 -0.369556,-0.89219 -0.161937,-2.03224 -0.749818,-2.79838 -0.284882,-0.37127 -0.7638,-0.58084 -1.215825,-0.70196 -0.445444,-0.11935 -1.017611,-0.28073 -1.383472,0 -0.537842,0.4127 -0.113688,1.42666 -0.526389,1.96451 -0.569091,0.74165 -1.493934,1.40225 -2.428768,1.40225 -0.937122,0 -1.86423,-0.66221 -2.434713,-1.40568 -0.651849,-0.84951 -1.10855,-2.06859 -0.83141,-3.10289 0.151963,-0.56713 0.737033,-0.95194 1.245511,-1.24551 0.407609,-0.23533 0.897248,-0.30402 1.363888,-0.36545 0.361827,-0.0476 0.729898,0 1.094847,0 0.925179,0 2.121338,0.6542 2.775539,0 0.29567,-0.29567 -0.254548,-0.92269 0,-1.25442 0.326407,-0.42539 1.22733,0.009 1.553737,-0.41633 0.387886,-0.5055 -0.243834,-1.32284 0,-1.91151 0.174255,-0.420688 0.571597,-0.738267 0.965943,-0.965943 0.286051,-0.165152 0.695099,-0.05539 0.957146,-0.256466 0.570194,-0.437524 0.892052,-1.17305 1.078068,-1.867274 0.157832,-0.589037 0.233367,-1.266052 0,-1.829448 -0.180552,-0.435892 -0.529044,-1.00085 -1.00085,-1.00085 -0.508535,0 -0.947147,0.587561 -1.078766,1.078769 -0.139836,0.521874 0.626265,1.066464 0.419507,1.565623 -0.671514,1.621173 -2.864011,2.177956 -4.558965,2.632118 -0.876767,0.234927 -1.936999,0.453847 -2.723085,0 -0.401821,-0.231992 -0.575886,-0.757289 -0.695973,-1.205461 -0.212397,-0.792681 0.314048,-1.703751 0,-2.461926 -0.117723,-0.284204 -0.534847,-0.368358 -0.652569,-0.652562 -0.221582,-0.53494 -0.07558,-1.162986 0,-1.737048 0.0918,-0.697293 0.546091,-1.334724 0.546092,-2.038031 10e-7,-0.387897 -0.250552,-0.73946 -0.301182,-1.124036 -0.08008,-0.608277 -0.08008,-1.232302 0,-1.840579 0.12735,-0.967325 0.630215,-1.859957 0.757565,-2.827282 0.08557,-0.649988 -0.08557,-1.316804 0,-1.966792 0.140701,-1.068733 0.424472,-2.127771 0.836987,-3.123672 0.557469,-1.345852 1.456736,-2.523147 2.185105,-3.784719 0.622511,-1.078221 0.87979,-2.476743 1.867533,-3.234664 0.5478,-0.420342 1.36295,-0.271896 2.000877,-0.536133 0.229073,-0.09488 0.447476,-0.220977 0.644185,-0.371917 0.515402,-0.395481 0.918741,-0.918744 1.378113,-1.378116 0.552381,-0.552382 1.03739,-1.181588 1.657146,-1.657144 0.384993,-0.295416 0.965361,-0.342918 1.260777,-0.727911 0.303774,-0.395887 0.322322,-0.951269 0.387455,-1.446004 0.09444,-0.717357 -0.09444,-1.453284 0,-2.170641 0.06595,-0.500969 0.139685,-1.026629 0.392331,-1.464224 0.19962,-0.34575 0.447679,-0.846909 0.846918,-0.846907 0.540799,3e-6 0.67886,0.876812 1.147206,1.147213 0.726662,0.419539 1.599559,0.761028 2.431459,0.651507 0.66818,-0.08797 1.09999,-1.185361 1.75098,-1.010927 0.49009,0.13132 0.62974,0.828117 0.76106,1.318204 0.2409,0.899065 -0.3562,1.932411 0,2.792339 0.22593,0.545452 0.83494,0.834941 1.25241,1.252411 0.73243,0.732432 1.46487,1.464861 2.1973,2.197294 0.58385,0.583842 1.09647,1.248888 1.75152,1.751529 0.72024,0.552664 1.71672,0.719824 2.35866,1.36177 0.8965,0.896496 1.26784,2.19596 1.90175,3.293939 0.67284,1.165382 1.50354,2.252915 2.01851,3.49615 0.55444,1.338545 1.12495,2.749559 1.12495,4.198392 0,0.949646 -0.73735,1.802217 -0.73735,2.751864 0,1.414362 0.73212,2.732336 1.09818,4.098503 0.27061,1.009902 0.94828,1.993126 0.81181,3.029708 -0.17095,1.298553 -0.92554,2.605521 -1.96464,3.402853 -0.58272,0.447139 -1.39392,0.570314 -2.12843,0.570314 -0.98673,0 -2.07649,-0.165474 -2.85932,-0.766157 -0.61543,-0.472237 -0.69137,-1.399977 -1.1636,-2.015407 -0.37263,-0.485624 -0.86567,-0.865664 -1.2985,-1.298494 -0.37079,-0.370789 -0.59248,-1.180812 -1.11237,-1.112368 -0.60934,0.08022 -0.84168,0.987438 -0.9219,1.59678 -0.12815,0.973385 0.16464,2.066092 0.76231,2.844992 0.44605,0.581295 1.38552,0.580956 1.90362,1.099057 0.45918,0.459175 0.57875,1.171934 0.97406,1.687114 0.42983,0.56016 0.84547,1.22759 1.49779,1.49779 0.53712,0.22248 1.16773,-0.0759 1.74413,0 0.62396,0.0821 1.21581,0.32577 1.8237,0.48866 0.4878,0.13071 1.06274,0.0847 1.46339,0.39211 0.61607,0.47273 1.06345,1.24761 1.16481,2.01751 0.14606,1.10947 -0.18766,2.35495 -0.86889,3.24276 -0.41949,0.54668 -1.10711,0.94368 -1.7903,1.03362 -0.66493,0.0875 -1.36263,-0.18541 -1.94344,-0.52074 -0.50433,-0.29117 -1.01248,-0.69732 -1.23533,-1.23533 -0.29817,-0.71983 0.67476,-1.94786 0,-2.33743 -0.32541,-0.18788 -0.65082,0.37575 -0.97623,0.56362 -0.53435,0.30851 -1.16675,0.48922 -1.60304,0.92551 -0.47072,0.47072 -0.74379,1.11452 -0.99854,1.72954 -0.72404,1.74799 -0.74503,3.73463 -1.46907,5.48262 -0.28192,0.68062 -0.65657,1.32953 -1.10504,1.91399 -0.31916,0.41594 -0.62779,0.91152 -1.11215,1.11215 -0.44491,0.18429 -0.96313,0 -1.44469,0 -0.70133,0 -1.40866,-0.0915 -2.10399,0 -0.86293,0.1136 -1.651778,0.67581 -2.522152,0.67581 -0.774403,0 -1.536419,-0.28671 -2.244046,-0.60129 -0.191266,-0.085 -0.382853,-0.18967 -0.52702,-0.34142 z"
       id="path4239"
       sodipodi:nodetypes="aaaaaaaaaaaaaaaaaaaaaaaaaaaaaaaaaaaaaaaaaaaaaaaaaaaaaaaaaaaaaaaaaaaaaaaaaaaaaaaaaaaaaaaaaaaaaa" /></g></svg>
