<?xml version="1.0" encoding="UTF-8" standalone="no"?>
<!-- Created with Inkscape (http://www.inkscape.org/) -->

<svg
   width="64.942558mm"
   height="24.413832mm"
   viewBox="0 0 64.942558 24.413832"
   version="1.1"
   id="svg5"
   xml:space="preserve"
   inkscape:version="1.2.2 (b0a8486541, 2022-12-01)"
   sodipodi:docname="brain_schematics_side.svg"
   xmlns:inkscape="http://www.inkscape.org/namespaces/inkscape"
   xmlns:sodipodi="http://sodipodi.sourceforge.net/DTD/sodipodi-0.dtd"
   xmlns="http://www.w3.org/2000/svg"
   xmlns:svg="http://www.w3.org/2000/svg"><sodipodi:namedview
     id="namedview7"
     pagecolor="#ffffff"
     bordercolor="#000000"
     borderopacity="0.25"
     inkscape:showpageshadow="2"
     inkscape:pageopacity="0.0"
     inkscape:pagecheckerboard="0"
     inkscape:deskcolor="#d1d1d1"
     inkscape:document-units="mm"
     showgrid="false"
     inkscape:zoom="1.6819304"
     inkscape:cx="-101.96617"
     inkscape:cy="42.510677"
     inkscape:window-width="2560"
     inkscape:window-height="1489"
     inkscape:window-x="0"
     inkscape:window-y="0"
     inkscape:window-maximized="1"
     inkscape:current-layer="layer1" /><defs
     id="defs2" /><g
     inkscape:label="Layer 1"
     inkscape:groupmode="layer"
     id="layer1"
     transform="translate(-102.98445,-76.758886)"><path
       style="fill:none;stroke:#000000;stroke-width:1;stroke-dasharray:none;stroke-opacity:1"
       d="m 164.09991,108.75045 c -3.24284,0.47241 -6.66754,0.14376 -9.81825,-0.50469 -0.97185,-0.20001 -0.97332,-2.11332 -0.43236,-2.94511 0.39613,-0.60911 1.55127,-0.10861 2.09975,-0.58515 0.11809,-0.1026 0.21696,-0.27635 0.1879,-0.43006 -0.0875,-0.46282 -0.83793,-0.55645 -0.99947,-0.99891 -0.11233,-0.3077 -0.0142,-0.66658 0.084,-0.9791 0.0669,-0.21318 0.27342,-0.36589 0.33473,-0.58075 0.16209,-0.56797 -0.0426,-1.18906 0.0587,-1.770962 0.0821,-0.47203 0.18687,-0.96168 0.4404,-1.36821 0.14303,-0.22934 0.3468,-0.43281 0.58383,-0.5627 0.30192,-0.16543 0.66823,-0.16638 1.00431,-0.24106 0.60991,-0.1355 1.21818,-0.28481 1.83635,-0.37546 0.43895,-0.0644 0.88197,-0.12165 1.32561,-0.11898 0.28446,0.002 0.61003,-0.0678 0.84899,0.0865 0.24835,0.16038 0.33424,0.49308 0.44492,0.76721 0.13512,0.33466 0.13043,0.71413 0.25944,1.0512 0.0624,0.163 0.0754,0.42555 0.24601,0.46219 0.13699,0.0294 0.19267,-0.24733 0.33242,-0.25724 0.37654,-0.0267 0.70347,0.30769 0.98439,0.55983 0.13572,0.121822 0.13854,0.426472 0.32009,0.443712 0.22581,0.0215 0.52072,-0.24169 0.49489,-0.467042 -0.0515,-0.44904 -0.81303,-0.40761 -1.17118,-0.68334 -0.14871,-0.11449 -0.33416,-0.22134 -0.39868,-0.39758 -0.10505,-0.28693 -0.10819,-0.67088 0.0777,-0.91338 0.26385,-0.34421 0.79758,-0.36017 1.22324,-0.44327 0.87635,-0.17108 1.7839,-0.0937 2.67676,-0.1016 0.60312,-0.005 1.20889,-0.0233 1.80905,0.0366 1.15865,0.11561 2.30042,0.37054 3.43759,0.62092 1.12946,0.24869 2.25261,0.5329 3.35758,0.87432 0.75273,0.23257 1.5838,0.34011 2.22459,0.79846 0.24787,0.17731 0.40699,0.457292 0.57029,0.714602 0.20098,0.31667 0.29341,0.69447 0.49698,1.00948 0.0755,0.11687 0.13657,0.27016 0.26572,0.32196 0.17146,0.0688 0.38311,0.0132 0.55037,-0.0652 0.37008,-0.17352 0.56304,-0.59812 0.88961,-0.84393 0.41037,-0.30886 0.83061,-0.65417 1.32838,-0.78074 0.65494,-0.166552 1.3632,-0.0631 2.02623,0.0676 0.35652,0.0703 0.76057,0.12728 1.02182,0.37986 0.20243,0.19572 0.29217,0.5013 0.32086,0.78141 0.0231,0.22483 0.0204,0.49341 -0.12504,0.66638 -0.4373,0.52003 -1.33659,0.34833 -1.90923,0.71405 -0.71153,0.45441 -1.09689,1.31583 -1.80268,1.7791 -0.59374,0.38974 -1.33295,0.49534 -1.97637,0.79605 -0.46239,0.21611 -0.86736,0.55647 -1.34995,0.72264 -1.61776,0.55703 -4.08391,2.35573 -6.18647,1.88136 -0.59557,-0.13436 -1.58181,-0.97049 -2.67065,-0.81993 -1.84501,0.25512 -2.86111,1.34032 -5.32314,1.69898 z"
       id="path246"
       sodipodi:nodetypes="ssssssssssssssssssssssssssssssssssssssssssssssss" /><path
       style="fill:none;stroke-width:0.264583"
       d="m 134.12033,162.01815 c 0,0 -8.62088,5.17255 -22.36527,7.17478 -18.103348,2.63723 -37.221945,0.80252 -54.81093,-2.81743 -5.42546,-1.1166 -5.433658,-11.79775 -2.413715,-16.44128 2.211441,-3.40036 8.660061,-0.60629 11.722004,-3.26663 0.659246,-0.57278 1.21119,-1.5427 1.048933,-2.40081 -0.488548,-2.58372 -4.677783,-3.10645 -5.579565,-5.57649 -0.627131,-1.71775 -0.07892,-3.72121 0.468856,-5.46589 0.373642,-1.19006 1.526357,-2.04259 1.868663,-3.24204 0.904877,-3.17072 -0.237677,-6.63801 0.327523,-9.88652 0.458473,-2.63509 1.043217,-5.3686 2.458572,-7.63811 0.798447,-1.28031 1.93601,-2.4162 3.259253,-3.14127 1.685499,-0.92357 3.730402,-0.92888 5.606602,-1.34573 3.404848,-0.75648 6.800564,-1.58999 10.251529,-2.09603 2.450477,-0.35933 4.923659,-0.67916 7.400298,-0.66426 1.588006,0.01 3.405525,-0.37853 4.739558,0.48299 1.386387,0.89533 1.865882,2.75266 2.483769,4.28299 0.75434,1.86828 0.72813,3.98668 1.44835,5.86838 0.34828,0.90995 0.42077,2.37566 1.37338,2.58024 0.76473,0.16423 1.07555,-1.38077 1.85576,-1.43606 2.10203,-0.14896 3.92714,1.71768 5.49538,3.12529 0.75766,0.68005 0.7734,2.38075 1.78694,2.47701 1.26058,0.11973 2.90696,-1.34926 2.76274,-2.60728 -0.28739,-2.50681 -4.53881,-2.27552 -6.53817,-3.81475 -0.83022,-0.63915 -1.86547,-1.23566 -2.22568,-2.21954 -0.58645,-1.60184 -0.60395,-3.74521 0.43383,-5.09903 1.47294,-1.92152 4.45256,-2.01066 6.82882,-2.47455 4.89229,-0.95507 9.95872,-0.52297 14.94316,-0.56718 3.36693,-0.0299 6.74871,-0.13029 10.09914,0.20401 6.46823,0.64539 12.84221,2.06857 19.1905,3.46634 6.30526,1.38829 12.57524,2.97492 18.74378,4.88089 4.20217,1.29839 8.8416,1.8987 12.41883,4.45751 1.38374,0.9898 2.27202,2.55283 3.18367,3.98926 1.12197,1.76782 1.63797,3.87694 2.77442,5.63549 0.42163,0.65243 0.76241,1.50817 1.48338,1.79738 0.95717,0.38395 2.1387,0.074 3.07245,-0.36378 2.06598,-0.96872 3.14318,-3.33908 4.9663,-4.71129 2.29084,-1.72425 4.63686,-3.65195 7.41566,-4.35857 3.65625,-0.92974 7.61015,-0.35236 11.31153,0.37729 1.99027,0.39234 4.24591,0.71057 5.7043,2.12061 1.13008,1.09261 1.63107,2.79854 1.79124,4.36226 0.12856,1.25512 0.11396,2.75448 -0.69806,3.72012 -2.44126,2.9031 -7.46153,1.94455 -10.65832,3.98619 -3.97212,2.53681 -6.12341,7.34571 -10.0635,9.93199 -3.31456,2.17569 -7.44125,2.76526 -11.03316,4.44399 -2.58131,1.20641 -4.84203,3.10648 -7.5361,4.03413 -9.03123,3.10971 -22.79855,13.15101 -34.53615,10.50286 -3.32477,-0.75011 -7.55761,-6.88721 -7.55761,-6.88721"
       id="path344"
       sodipodi:nodetypes="csssssssssssssssssssssssssssssssssssssssssssssac" /></g></svg>
